<?xml version="1.0" encoding="UTF-8"?>
<svg id="Layer_2" data-name="Layer 2" xmlns="http://www.w3.org/2000/svg" viewBox="0 0 835.11 772.91">
  <defs>
    <style>
      .cls-1 {
        stroke-width: 16.52px;
      }

      .cls-1, .cls-2 {
        fill: none;
        stroke: #000;
        stroke-linecap: round;
        stroke-miterlimit: 10;
      }

      .cls-2 {
        stroke-width: 23.15px;
      }
    </style>
  </defs>
  <g id="Real_Estate_Service_Icons" data-name="Real Estate Service Icons">
    <g id="Move">
      <rect id="we_help_you_navigate_the_real_estate_market_in_niagara" data-name="we help you navigate the real estate market in niagara" class="cls-2" x="-11.73" y="570.65" width="247.73" height="130.39" rx="41.55" ry="41.55" transform="translate(624.23 242.61) rotate(62.48)"/>
      <path id="we_help_you_navigate_the_real_estate_market_in_niagara-2" data-name="we help you navigate the real estate market in niagara" class="cls-2" d="M132.63,533.79l142.98-84.41c13.2-7.79,29.1-9.58,43.7-4.91l229.97,73.56c22.17,7.09,34.49,30.71,27.63,52.95h0c-6.81,22.08-30.04,34.65-52.25,28.29l-114.87-32.92"/>
      <path id="we_help_you_navigate_the_real_estate_market_in_niagara-3" data-name="we help you navigate the real estate market in niagara" class="cls-2" d="M656.69,559.69l102.68-61.12c19.86-11.82,45.52-5.58,57.74,14.03h0c12.31,19.75,6.41,45.73-13.22,58.24l-262.08,162.66c-19.14,11.88-42.43,15.06-64.05,8.75l-210.94-61.52c-7.7-2.25-15.95-1.68-23.28,1.59l-27.35,12.22"/>
      <circle id="we_help_you_navigate_the_real_estate_market_in_niagara-4" data-name="we help you navigate the real estate market in niagara" class="cls-1" cx="136.23" cy="695.05" r="9.29"/>
      <path id="we_help_you_navigate_the_real_estate_market_in_niagara-5" data-name="we help you navigate the real estate market in niagara" class="cls-2" d="M798.69,225.76c-1.85-2.43-3.86-4.77-5.97-7.02-62.19-66.22-128.59-127.91-192.86-191.98-6.4-6.37-13.34-13.04-22.21-14.75-14.53-2.8-27.62,8.48-38.12,18.9-48.85,48.46-97.69,96.93-146.54,145.39-21.97,21.79-86.01,70.93-45.48,102.82,9.51,7.48,23.06,9.46,34.31,5,8.8-3.49,15.76-10.36,22.46-17.05l152.87-152.88c8.03-8.04,21.06-8.04,29.1,0l151.51,151.5c8.11,8.11,16.72,16.52,27.75,19.67,16.03,4.57,33.88-5.8,40.42-20.59,6.34-14.35,1.39-27.65-7.23-39Z"/>
      <line id="we_help_you_navigate_the_real_estate_market_in_niagara-6" data-name="we help you navigate the real estate market in niagara" class="cls-2" x1="412.05" y1="264.56" x2="412.05" y2="435.94"/>
      <line id="we_help_you_navigate_the_real_estate_market_in_niagara-7" data-name="we help you navigate the real estate market in niagara" class="cls-2" x1="730.95" y1="264.56" x2="730.95" y2="463.2"/>
      <path id="we_help_you_navigate_the_real_estate_market_in_niagara-8" data-name="we help you navigate the real estate market in niagara" class="cls-2" d="M633.75,442.56v-108.83c0-31.11-25.22-56.33-56.33-56.33h0c-31.11,0-56.33,25.22-56.33,56.33v108.83"/>
    </g>
  </g>
</svg>
