<?xml version="1.0" encoding="UTF-8"?>
<svg id="Layer_2" data-name="Layer 2" xmlns="http://www.w3.org/2000/svg" viewBox="0 0 44.98 41.62">
  <defs>
    <style>
      .cls-1 {
        fill: none;
        stroke: #000;
        stroke-miterlimit: 10;
        stroke-width: 2px;
      }
    </style>
  </defs>
  <g id="Layer_1-2" data-name="Layer 1">
    <g id="Real_Estate_Service_Icons" data-name="Real Estate Service Icons">
      <g id="Move">
        <rect id="we_help_you_navigate_the_real_estate_market_in_niagara" data-name="we help you navigate the real estate market in niagara" class="cls-1" x="2.87" y="27.42" width="6.9" height="13.11" rx="2.2" ry="2.2" transform="translate(-14.97 6.76) rotate(-27.5)"/>
        <path id="we_help_you_navigate_the_real_estate_market_in_niagara-2" data-name="we help you navigate the real estate market in niagara-2" class="cls-1" d="M7.41,28.57l7.57-4.47c.7-.41,1.54-.51,2.31-.26l12.17,3.89c1.17.38,1.83,1.62,1.46,2.8h0c-.36,1.17-1.59,1.84-2.76,1.5l-6.08-1.74"/>
        <path id="we_help_you_navigate_the_real_estate_market_in_niagara-3" data-name="we help you navigate the real estate market in niagara-3" class="cls-1" d="M35.15,29.94l5.43-3.23c1.05-.62,2.41-.3,3.05.74h0c.65,1.05.34,2.42-.7,3.08l-13.87,8.61c-1.01.63-2.24.8-3.39.47l-11.16-3.25c-.41-.12-.84-.09-1.23.08l-1.45.65"/>
        <circle id="we_help_you_navigate_the_real_estate_market_in_niagara-4" data-name="we help you navigate the real estate market in niagara-4" class="cls-1" cx="7.62" cy="37.1" r=".49"/>
        <path id="we_help_you_navigate_the_real_estate_market_in_niagara-5" data-name="we help you navigate the real estate market in niagara-5" class="cls-1" d="M42.02,11.61L32.24,1.83c-.06-.1-.14-.19-.23-.28-.38-.38-.87-.56-1.37-.55-.49,0-.99.17-1.37.55-.08.08-.16.18-.23.28l-10.43,10.43c-.74.74-.74,1.94,0,2.68h0c.74.74,1.94.74,2.68,0l9.35-9.35,9.35,9.35c.74.74,1.94.74,2.68,0h0c.74-.74.74-1.94,0-2.68l-.66-.66h0Z"/>
        <line id="we_help_you_navigate_the_real_estate_market_in_niagara-6" data-name="we help you navigate the real estate market in niagara-6" class="cls-1" x1="22.2" y1="14.33" x2="22.2" y2="23.39"/>
        <line id="we_help_you_navigate_the_real_estate_market_in_niagara-7" data-name="we help you navigate the real estate market in niagara-7" class="cls-1" x1="39.08" y1="14.33" x2="39.08" y2="24.83"/>
        <path id="we_help_you_navigate_the_real_estate_market_in_niagara-8" data-name="we help you navigate the real estate market in niagara-8" class="cls-1" d="M33.94,23.74v-5.76c0-1.65-1.33-2.98-2.98-2.98h0c-1.65,0-2.98,1.33-2.98,2.98v5.76"/>
      </g>
    </g>
  </g>
</svg>
