<?xml version="1.0" encoding="UTF-8"?>
<svg id="Layer_2" xmlns="http://www.w3.org/2000/svg" version="1.1" viewBox="0 0 835.1 771.7">
  <!-- Generator: Adobe Illustrator 30.1.0, SVG Export Plug-In . SVG Version: 2.1.1 Build 136)  -->
  <defs>
    <style>
      .st0 {
        stroke-width: 16.5px;
      }

      .st0, .st1, .st2 {
        fill: none;
        stroke: #000;
        stroke-linecap: round;
      }

      .st0, .st2 {
        stroke-miterlimit: 10;
      }

      .st1 {
        stroke-miterlimit: 10;
        stroke-width: 23.1px;
      }

      .st2 {
        stroke-width: 23.1px;
      }
    </style>
  </defs>
  <g id="Real_Estate_Service_Icons">
    <g id="Move">
      <rect id="we_help_you_navigate_the_real_estate_market_in_niagara" class="st1" x="47" y="510.8" width="130.4" height="247.7" rx="41.5" ry="41.5" transform="translate(-280.6 123.6) rotate(-27.5)"/>
      <path id="we_help_you_navigate_the_real_estate_market_in_niagara-2" class="st2" d="M132.6,532.6l143-84.4c13.2-7.8,29.1-9.6,43.7-4.9l230,73.6c22.2,7.1,34.5,30.7,27.6,53h0c-6.8,22.1-30,34.7-52.2,28.3l-114.9-32.9"/>
      <path id="we_help_you_navigate_the_real_estate_market_in_niagara-3" class="st2" d="M656.7,558.5l102.7-61.1c19.9-11.8,45.5-5.6,57.7,14h0c12.3,19.8,6.4,45.7-13.2,58.2l-262.1,162.7c-19.1,11.9-42.4,15.1-64,8.8l-210.9-61.5c-7.7-2.2-15.9-1.7-23.3,1.6l-27.4,12.2"/>
      <circle id="we_help_you_navigate_the_real_estate_market_in_niagara-4" class="st0" cx="136.2" cy="693.8" r="9.3" transform="translate(-38.2 8.6) rotate(-3.2)"/>
      <path id="we_help_you_navigate_the_real_estate_market_in_niagara-5" class="st2" d="M786.5,212L601.8,27.2c-1.2-1.8-2.7-3.6-4.3-5.2-7.1-7.1-16.5-10.6-25.8-10.4-9.3-.1-18.7,3.3-25.8,10.4-1.6,1.6-3,3.4-4.3,5.2l-197.1,197.1c-14,14-14,36.6,0,50.6h0c14,14,36.6,14,50.6,0l176.6-176.6,176.6,176.6c14,14,36.6,14,50.6,0h0c14-14,14-36.6,0-50.6l-12.4-12.4Z"/>
      <line id="we_help_you_navigate_the_real_estate_market_in_niagara-6" class="st2" x1="412" y1="263.4" x2="412" y2="434.7"/>
      <line id="we_help_you_navigate_the_real_estate_market_in_niagara-7" class="st2" x1="731" y1="263.4" x2="731" y2="462"/>
      <path id="we_help_you_navigate_the_real_estate_market_in_niagara-8" class="st2" d="M633.8,441.4v-108.8c0-31.1-25.2-56.3-56.3-56.3h0c-31.1,0-56.3,25.2-56.3,56.3v108.8"/>
    </g>
  </g>
</svg>
