<?xml version="1.0" encoding="UTF-8"?>
<svg id="Layer_2" data-name="Layer 2" xmlns="http://www.w3.org/2000/svg" viewBox="0 0 835.11 771.71">
  <defs>
    <style>
      .cls-1 {
        stroke-width: 16.52px;
      }

      .cls-1, .cls-2 {
        fill: none;
        stroke: #000;
        stroke-linecap: round;
        stroke-miterlimit: 10;
      }

      .cls-2 {
        stroke-width: 23.15px;
      }
    </style>
  </defs>
  <g id="Real_Estate_Service_Icons" data-name="Real Estate Service Icons">
    <g id="Move">
      <rect id="we_help_you_navigate_the_real_estate_market_in_niagara" data-name="we help you navigate the real estate market in niagara" class="cls-2" x="-11.73" y="569.45" width="247.73" height="130.39" rx="41.55" ry="41.55" transform="translate(623.17 241.96) rotate(62.48)"/>
      <path id="we_help_you_navigate_the_real_estate_market_in_niagara-2" data-name="we help you navigate the real estate market in niagara" class="cls-2" d="M132.63,532.59l142.98-84.41c13.2-7.79,29.1-9.58,43.7-4.91l229.97,73.56c22.17,7.09,34.49,30.71,27.63,52.95h0c-6.81,22.08-30.04,34.65-52.25,28.29l-114.87-32.92"/>
      <path id="we_help_you_navigate_the_real_estate_market_in_niagara-3" data-name="we help you navigate the real estate market in niagara" class="cls-2" d="M656.69,558.49l102.68-61.12c19.86-11.82,45.52-5.58,57.74,14.03h0c12.31,19.75,6.41,45.73-13.22,58.24l-262.08,162.66c-19.14,11.88-42.43,15.06-64.05,8.75l-210.94-61.52c-7.7-2.25-15.95-1.68-23.28,1.59l-27.35,12.22"/>
      <circle id="we_help_you_navigate_the_real_estate_market_in_niagara-4" data-name="we help you navigate the real estate market in niagara" class="cls-1" cx="136.23" cy="693.85" r="9.29"/>
      <path id="we_help_you_navigate_the_real_estate_market_in_niagara-5" data-name="we help you navigate the real estate market in niagara" class="cls-2" d="M798.9,224.39L601.77,27.25c-1.25-1.84-2.65-3.61-4.29-5.25-7.11-7.11-16.46-10.56-25.78-10.43-9.32-.13-18.67,3.32-25.78,10.43-1.63,1.63-3.04,3.41-4.29,5.25l-197.13,197.13c-13.97,13.97-13.97,36.62,0,50.59h0c13.97,13.97,36.62,13.97,50.59,0l176.6-176.6,176.6,176.6c13.97,13.97,36.62,13.97,50.59,0h0c13.97-13.97,13.97-36.62,0-50.59Z"/>
      <line id="we_help_you_navigate_the_real_estate_market_in_niagara-6" data-name="we help you navigate the real estate market in niagara" class="cls-2" x1="412.05" y1="263.36" x2="412.05" y2="434.74"/>
      <line id="we_help_you_navigate_the_real_estate_market_in_niagara-7" data-name="we help you navigate the real estate market in niagara" class="cls-2" x1="730.95" y1="263.36" x2="730.95" y2="462"/>
      <path id="we_help_you_navigate_the_real_estate_market_in_niagara-8" data-name="we help you navigate the real estate market in niagara" class="cls-2" d="M633.75,441.36v-108.83c0-31.11-25.22-56.33-56.33-56.33h0c-31.11,0-56.33,25.22-56.33,56.33v108.83"/>
    </g>
  </g>
</svg>
