<?xml version="1.0" encoding="UTF-8"?>
<svg id="Layer_2" data-name="Layer 2" xmlns="http://www.w3.org/2000/svg" viewBox="0 0 814.09 756.54">
  <defs>
    <style>
      .cls-1 {
        fill: none;
        stroke: #000;
        stroke-linecap: round;
        stroke-miterlimit: 10;
        stroke-width: 26.19px;
      }
    </style>
  </defs>
  <g id="Real_Estate_Service_Icons" data-name="Real Estate Service Icons">
    <g id="Stay">
      <rect id="we_stay_after_you_buy_your_home" data-name="we stay after you buy your home" class="cls-1" x="87.58" y="294.95" width="126.4" height="185.19" rx="63.2" ry="63.2" transform="translate(318.19 6.89) rotate(45)"/>
      <rect id="we_stay_after_you_buy_your_home-2" data-name="we stay after you buy your home" class="cls-1" x="178.38" y="385.75" width="126.4" height="185.19" rx="63.2" ry="63.2" transform="translate(408.99 -30.72) rotate(45)"/>
      <path id="we_stay_after_you_buy_your_home-3" data-name="we stay after you buy your home" class="cls-1" d="M656.42,266.59l101.78,101.78c24.68,24.68,24.68,64.7,0,89.38h0c-24.68,24.68-64.7,24.68-89.38,0l-108.02-108.02"/>
      <path id="we_stay_after_you_buy_your_home-4" data-name="we stay after you buy your home" class="cls-1" d="M564.34,354.51l103.86,103.86c24.68,24.68,24.68,64.7,0,89.38h0c-24.68,24.68-64.7,24.68-89.38,0l-107.32-107.32"/>
      <path id="we_stay_after_you_buy_your_home-5" data-name="we stay after you buy your home" class="cls-1" d="M471.58,441.74l106.63,106.63c24.68,24.68,24.68,64.7,0,89.38h0c-20.53,20.53-48.67,26.62-72.77,13"/>
      <path id="we_stay_after_you_buy_your_home-6" data-name="we stay after you buy your home" class="cls-1" d="M407.37,83.73l-91.12,91.12c-22.26,22.26-27.68,58.1-9.29,83.64,23.44,32.55,69.13,35.26,96.28,8.13l109.78-109.8c9.69-9.69,25.41-9.65,35.04.09l110.24,111.35"/>
      <rect id="we_stay_after_you_buy_your_home-7" data-name="we stay after you buy your home" class="cls-1" x="268.7" y="476.07" width="126.4" height="185.19" rx="63.2" ry="63.2" transform="translate(499.31 -68.13) rotate(45)"/>
      <rect id="we_stay_after_you_buy_your_home-8" data-name="we stay after you buy your home" class="cls-1" x="359.5" y="566.87" width="126.4" height="185.19" rx="63.2" ry="63.2" transform="translate(590.12 -105.74) rotate(45)"/>
      <path id="we_stay_after_you_buy_your_home-9" data-name="we stay after you buy your home" class="cls-1" d="M755.36,364.93c28.64-36.79,45.64-82.64,45.64-132.34,0-121.23-101.06-219.5-225.73-219.5-59.5,0-113.48,22.51-153.77,59.12-8.06,7.32-20.85,7.32-28.91,0-40.29-36.61-94.27-59.12-153.77-59.12C114.15,13.09,13.09,111.36,13.09,232.59c0,56.2,21.73,107.48,57.46,146.3"/>
    </g>
  </g>
</svg>
