<?xml version="1.0" encoding="UTF-8"?>
<svg id="Layer_2" data-name="Layer 2" xmlns="http://www.w3.org/2000/svg" viewBox="0 0 324.87 439.31">
  <defs>
    <style>
      .cls-1, .cls-2 {
        fill: none;
        stroke: #9b9b9b;
        stroke-miterlimit: 10;
        stroke-width: .35px;
      }

      .cls-2 {
        stroke-dasharray: .71 1.41;
      }
    </style>
  </defs>
  <g id="Niagara_Region" data-name="Niagara Region">
    <g id="Port_Colborne" data-name="Port Colborne">
      <polyline id="Port_Colborne-2" data-name="Port Colborne-2" class="cls-2" points="79.72 415.21 82.62 414.99 80.2 391.74 82.15 389.95 83.16 387.42 85.32 386.23 85.12 383.59 90.55 383.17 90.65 380.89 93.12 379.07 93.31 377.22 95.62 377.03 98.19 386.25 99.61 376.72 107.77 375.48 102.97 389.56 102.84 392.42 114.22 391.34 115.07 399.86 115.96 400.21 116.39 405.74 115.89 405.93 116.32 411.43 109.27 412.39 109.44 414.62 108.03 414.33 108.81 424.3"/>
      <polyline id="Port_Colborne-3" data-name="Port Colborne-3" class="cls-2" points="79.76 415.2 61.9 368.53 80.63 367.07 90.44 382.96 96.12 367.88 101.97 350.28 164.62 342.95 172.51 430.69 171.18 429.15 169.24 428.91 167.21 427.24 165.14 427.4 162.69 426.99 160.86 427.95 159.22 427.05 159.52 426.23 158.44 425.89 158.21 425.12 153.08 421.45 149.28 419.53 143.87 418.94 142.68 419.22 142.42 420.46 141.67 421.73 138.16 421.21 135.84 422.61 135.57 423.63 134.37 425.95 132.03 426.95 127.92 427.67 125.7 425.83 122.51 424.86 120.28 425.22 117.25 426.28 115.95 427.39 115.5 428.45 116.14 429.8 115.64 430.26 114.71 429.3 113.87 429.58 113.05 428.03 112.79 427.02 108.79 424.51"/>
      <polyline id="Port_Colborne-4" data-name="Port Colborne-4" class="cls-2" points="108.79 424.51 105.75 423.32 103.84 423.28 102.69 423.98 102.16 423.81 102.22 422.38 101.5 422.04 100.85 422.49 101.9 427.08 102.6 429.45 101.6 430.14 101.09 427.94 100.58 427.98 100.91 430.19 99.77 431.08 98.93 424.67 98.92 422.45 98.55 422.06 97.88 422.32 97.57 424.98 97.25 425.41 97.04 427.04 95.82 426.95 96.13 424.28 96.41 423.44 95.71 423.49 95.04 423.76 94.5 423.4 94.8 422.77 93.94 422.84 93.22 422.48 92.54 422.74 92.19 422.77 91.79 421.98 90.94 422.26 89.06 422.61 87.01 422.96 86.23 423.84 86.43 424.43 86.35 425.44 86.09 426.68 85.13 427.57 85.59 429.15 84.79 430.02 83.44 430.53 81.26 429.08 79.76 415.2"/>
      <polygon id="Port_Colborne_Outline" data-name="Port Colborne Outline" class="cls-1" points="98.81 344.08 88.59 367.59 85.53 362.48 55.38 364.52 54.36 373.72 75.82 439.13 180.06 437.08 181.6 427.38 169.84 334.37 98.81 344.08"/>
    </g>
    <g id="Niagara-on-the-Lake">
      <polygon id="Niagara-on-the-Lake-2" class="cls-2" points="105.72 43.62 107.79 75.73 107.48 78.08 108.68 80.76 109.39 82.78 111.45 99.74 111.8 100.75 113.7 119.23 114.22 119.88 122.91 115.58 123.66 122.46 123.67 123.46 124.19 123.82 137.4 117.26 138.08 118.59 139.1 118.41 149.02 118.97 161.46 118.31 167.51 117.72 173.91 117.65 175.57 117.31 184.32 117.03 186.18 117.5 186.67 115.98 187.66 115.3 189 114.43 192.02 114.25 194.52 111.85 198.22 111.14 204.08 109.22 206.42 108.36 208.96 109.99 209.34 113.02 208.35 114.37 207.51 115.06 207.03 116.07 207.69 116.57 210.54 115.86 214.92 115.8 214.72 113.63 214.04 111.96 212.41 103.05 207.81 98.25 205.75 94.9 205.06 93.05 205.82 86.66 204.77 83.65 204.41 81.8 207.99 71.15 208.29 68.8 207.94 66.6 206.72 64.61 204.18 62.45 203.32 60.62 203.31 59.43 202.79 59.11 202.42 56.25 202.9 53.4 203.86 49.84 204.66 46.14 204.65 45.11 204.29 43.12 203.58 41.27 202.68 35.56 202.48 33.37 203.26 27.64 203.55 24.94 203.52 22.25 203.32 19.74 202.81 18.4 201.45 16.9 201.1 16.74 200.43 17.43 200.11 17.09 200.42 16.41 199.92 15.58 200.09 15.41 201.1 16.06 201.26 15.39 200.25 14.72 196.7 13.93 194.66 12.61 193.48 12.12 191.1 9.97 186.73 9.85 183.02 10.07 179.67 10.6 177.83 11.64 175.67 12.67 170.63 13.74 166.95 15.3 165.61 15.65 163.93 15.84 162.41 15.7 160.72 15.37 159.54 15.07 157.69 14.92 156.5 13.74 155.98 13.75 155.5 13.92 153.99 14.11 151.97 14.99 151.46 15.17 150.64 16.18 149.64 16.19 148.96 16.54 143.79 20.12 142.46 21.14 141.13 22.35 140.63 22.68 140.11 22.68 139.95 23.2 139.79 23.71 138.79 24.39 137.96 24.91 137.45 25.09 136.94 25.09 136.46 25.59 136.12 25.93 135.13 26.79 134.45 27.13 133.96 27.13 133.28 27.49 133.12 27.82 132.78 28.34 131.28 29.36 129.78 30.56 128.78 31.08 127.78 31.41 126.78 31.59 126.11 32.12 125.43 32.46 125.28 32.96 122.93 34.33 120.09 36.22 118.26 37.42 117.09 38.28 116.44 38.95 115.93 39.47 115.43 39.99 114.77 40.32 113.94 40.33 113.26 40.67 112.75 40.85 112.26 41.37 112.11 42.54 110.25 42.74 108.91 42.93 108.4 42.93 107.57 43.11 106.74 43.27 105.72 43.62"/>
      <polyline id="Niagara-on-the-Lake-3" class="cls-2" points="178.69 116.98 178.7 117.14 178.54 117.16"/>
      <line id="Niagara-on-the-Lake-4" class="cls-2" x1="173.94" y1="117.59" x2="165.32" y2="114.78"/>
      <polyline id="Niagara-on-the-Lake-5" class="cls-2" points="165.16 114.72 164.99 114.67 164.99 114.52"/>
      <line id="Niagara-on-the-Lake-6" class="cls-2" x1="164.99" y1="114.19" x2="164.68" y2="100.87"/>
      <polyline id="Niagara-on-the-Lake-7" class="cls-2" points="164.68 100.72 164.67 100.55 164.82 100.55"/>
      <polyline id="Niagara-on-the-Lake-8" class="cls-2" points="165.16 100.51 169.04 100.15 177.57 100.05"/>
      <polyline id="Niagara-on-the-Lake-9" class="cls-2" points="177.73 100.05 177.9 100.05 178 100.18"/>
      <polyline id="Niagara-on-the-Lake-10" class="cls-2" points="178.21 100.44 178.29 100.55 178.69 116.81"/>
      <polyline id="Niagara-on-the-Lake-11" class="cls-2" points="205.87 86.6 203.31 86.64 200.33 86.99 198.83 88.52 198.37 92.56 199.59 96.6 200.95 97.42 204.73 102.75 206.12 107.28 206.65 108.29 208.46 106.41 209.1 103.21 209.69 100.1"/>
      <polyline id="Niagara-on-the-Lake-12" class="cls-2" points="200.28 14.67 201.32 15.34 201.15 16 200.12 15.35 199.95 15.52 200.48 16.35 200.14 17.04 200.49 17.37 201.16 16.68 201.49 16.85 202.85 18.34 203.38 19.68 200.86 19.88 198.82 18.56 196.01 22.64 194.01 23.17 192.99 23.18 191.38 22.4 190.14 24.05 196.59 28 193.28 33.42 192.94 33.42 192.61 32.6 191.76 32.77 190.94 33.96 187.74 34 188.45 34.99 187.41 35 184.59 26.02 180.07 26.02 177.08 29.41 176.59 29.1 173.82 21.39 173.46 21.39 172.77 20.72 172.76 19.71 173.93 19.53 175.29 19.02 176.63 18.66 177.95 17.97 179.31 17.95 179.3 17.63 176.59 12.19"/>
      <polyline id="Niagara-on-the-Lake-13" class="cls-2" points="184.4 9.93 189.84 13.62 192.06 10.71"/>
      <polygon id="Niagara-on-the-Lake-14" class="cls-2" points="157.57 42.94 157.59 44.65 156.08 44.99 154.9 44.49 154.55 43.83 153.57 45.68 152.21 45.69 150.09 45.72 150.24 58.31 150.7 58.84 150.72 60.01 167.86 59.31 167.44 52.75 167.94 52.24 168.28 51.05 167.41 50.06 167.35 45.02 164.83 45.05 163.29 43.05 161.58 42.89 159.1 43.17 158.57 42.44 157.57 42.94"/>
      <polyline id="Niagara-on-the-Lake-15" class="cls-2" points="123.52 119.32 123.38 119.38 123.38 119.23"/>
      <polyline id="Niagara-on-the-Lake-16" class="cls-2" points="122.93 114.89 122.53 108.12 122.51 106.34 122.77 105.43"/>
      <polyline id="Niagara-on-the-Lake-17" class="cls-2" points="122.8 105.26 122.86 105.11 123.02 105.14"/>
      <line id="Niagara-on-the-Lake-18" class="cls-2" x1="123.33" y1="105.19" x2="125.04" y2="105.52"/>
      <polyline id="Niagara-on-the-Lake-19" class="cls-2" points="125.2 105.53 125.37 105.57 125.32 105.42"/>
      <line id="Niagara-on-the-Lake-20" class="cls-2" x1="125.27" y1="105.08" x2="124.89" y2="103.21"/>
      <polyline id="Niagara-on-the-Lake-21" class="cls-2" points="124.86 103.04 124.82 102.88 124.99 102.88"/>
      <polyline id="Niagara-on-the-Lake-22" class="cls-2" points="125.32 102.92 133.06 103.3 138.74 102.72 141.15 102.08"/>
      <polyline id="Niagara-on-the-Lake-23" class="cls-2" points="141.31 102.04 141.48 102 141.59 102.14"/>
      <polyline id="Niagara-on-the-Lake-24" class="cls-2" points="141.82 102.36 142.49 103.01 144.39 104.01"/>
      <polyline id="Niagara-on-the-Lake-25" class="cls-2" points="144.55 104.08 144.68 104.16 144.68 104.33"/>
      <line id="Niagara-on-the-Lake-26" class="cls-2" x1="144.69" y1="104.61" x2="144.69" y2="105.05"/>
      <polyline id="Niagara-on-the-Lake-27" class="cls-2" points="144.7 105.19 144.7 105.36 144.85 105.43"/>
      <line id="Niagara-on-the-Lake-28" class="cls-2" x1="145.21" y1="105.65" x2="145.74" y2="105.96"/>
      <polyline id="Niagara-on-the-Lake-29" class="cls-2" points="145.92 106.08 146.07 106.17 146.07 106.32"/>
      <line id="Niagara-on-the-Lake-30" class="cls-2" x1="146.07" y1="106.66" x2="146.16" y2="113.88"/>
      <polyline id="Niagara-on-the-Lake-31" class="cls-2" points="146.16 114.05 146.16 114.19 145.99 114.22"/>
      <polyline id="Niagara-on-the-Lake-32" class="cls-2" points="145.68 114.24 142.97 114.44 139.69 112.78"/>
      <polyline id="Niagara-on-the-Lake-33" class="cls-2" points="139.56 112.7 139.41 112.63 139.25 112.69"/>
      <line id="Niagara-on-the-Lake-34" class="cls-2" x1="138.96" y1="112.82" x2="123.68" y2="119.26"/>
      <polygon id="Niagara-on-the-Lake_Outline" data-name="Niagara-on-the-Lake Outline" class="cls-1" points="106.48 33.9 154 2.22 167.8 5.29 177 .18 197.44 .18 213.79 13.97 214.3 41.57 212.77 54.85 218.9 65.07 214.3 87.05 227.08 118.73 220.94 123.33 202.55 124.35 197.44 118.22 187.22 123.84 133.56 127.42 122.83 133.04 103.41 120.26 95.24 39.01 106.48 33.9"/>
    </g>
    <g id="Niagara_Falls" data-name="Niagara Falls">
      <polygon id="Niagara_Falls-2" data-name="Niagara Falls-2" class="cls-2" points="208.69 225.57 208.82 228.96 209.96 228.61 216.34 228.87 217.41 225.46 213.61 225.74 208.69 225.57"/>
      <polygon id="Niagara_Falls-3" data-name="Niagara Falls-3" class="cls-2" points="242 221.33 242.04 224.59 241.66 228.72 240.17 231.13 238.89 233.11 236.54 235.96 234.84 239.67 234.21 242.73 234.69 245.98 234.94 248.15 235.2 252.05 235.89 254.22 236.81 258.12 236.61 260.74 236.65 264.43 238 267.68 238.77 268.97 236.93 269 235.4 269.03 235.55 281 182.11 281.65 182.13 285.75 186.69 285.7 186.51 287.86 156.28 288.23 156.25 286.24 155.72 286.24 154.78 253.89 155.56 253.89 154.85 223.67 155.42 223.66 155.33 210.21 151.2 209.95 151.11 202.21 150.79 193.07 150.51 169.78 149.98 161.57 149.45 145.52 160.58 139.91 160.87 142.2 169.52 141.55 175.59 141.04 186.89 140.68 200.59 140.08 214.92 139.69 226.01 139.33 226.25 142.17 225.65 145.64 223.87 147.16 221.57 149.4 220.3 152.44 219.01 154.43 217.28 155.53 216.17 155.26 215.12 156.86 213.29 158.11 212.34 159.72 211.69 159.72 211.2 159.18 210.51 158.85 209.05 159.68 208.87 160.63 210.55 161.86 211.07 162.58 211.94 162.56 212.83 162.97 212.84 163.59 213.71 164.49 215 164.25 216.55 166.41 217.81 170.09 216.73 173.5 215.38 177.51 214.74 177.53 214.31 178.17 214.32 179.27 213.7 179.92 213.47 180.85 213.48 181.88 213.05 182.54 212.75 182.99 212.63 183.63 211.76 184.3 210.48 186.06 209.84 186.48 209.85 187.14 209.19 187.15 209 188.46 207.92 189.12 207.28 190.87 207.3 191.74 206.86 192.18 206.87 192.83 207.1 193.26 206.45 193.93 206.26 195.01 206.26 196.11 206.7 196.1 207.37 197.61 208.68 198.46 210 199.53 210.66 200.62 211.96 200.6 212.84 201.02 215.45 200.56 217.84 201.17 219.38 202.03 221.68 203.52 223.11 204.6 225.5 205.21 225.74 206.08 225.95 206.73 227.38 207.34 232.71 207.96 235.34 208.8 236.45 211.18 237.56 212.91 239.1 215.06 240.88 218.07 242 221.33"/>
      <polyline id="Niagara_Falls-4" data-name="Niagara Falls-4" class="cls-2" points="236.86 268.97 235.08 266.38 234.86 264.65 234.6 262.06 235 259 234.97 257.05 233.61 252.94 233.18 250.77 233.16 249.02 232.69 246.64 232.21 242.96 232.39 240.35 233.42 236.64 234.7 234.9 235.79 233.79 237.27 230.95 239.18 227.44 240.45 224.84 239.98 222.02 239.28 217.67 239.03 215.08"/>
      <polyline id="Niagara_Falls-5" data-name="Niagara Falls-5" class="cls-2" points="169.39 223.08 169.49 231.34 181.44 231.19 181.72 236.62 182.06 281.65"/>
      <polyline id="Niagara_Falls-6" data-name="Niagara Falls-6" class="cls-2" points="232.65 207.98 227.11 216.95 225.36 216.97 225.66 223.27 225.68 224.35 226.31 223.9 227.62 223.89 228.05 223.45 228.71 223.03 229.36 223.43 230 223.42 230.88 223.42 231.74 222.99 231.52 222.12 231.72 221.45 232.81 221.01 233.88 220.35 234.96 220.34 235.63 220.54 236.28 220.76 237.35 220.52 237.79 220.51 238.21 219.86 238 218.99 238.86 218.77"/>
      <polyline id="Niagara_Falls-7" data-name="Niagara Falls-7" class="cls-2" points="225.66 223.27 220.89 223.33 219.59 223.78 218.05 223.57 217.98 217.38 219.08 217.04 225.36 216.97"/>
      <polyline id="Niagara_Falls-8" data-name="Niagara Falls-8" class="cls-2" points="218.05 223.57 212.85 223.64 210.47 223.89 210 221.07"/>
      <polygon id="Niagara_Falls-9" data-name="Niagara Falls-9" class="cls-2" points="210 221.07 208.9 221.53 208.27 222.4 207.63 223.06 206.98 223.49 206.12 224.15 205.25 224.6 204.84 225.04 204.82 223.96 203.96 224.41 203.92 220.96 204.32 218.32 206.47 217.64 209.1 218.7 210.61 218.02 212.77 216.92 214.5 216.23 215.65 215.91 213.97 217.6 213.01 220.17 210 221.07"/>
      <polyline id="Niagara_Falls-10" data-name="Niagara Falls-10" class="cls-2" points="204.84 225.04 202.67 225.73 200.74 227.06 199.43 227.28 199 227.51 196.41 229.7 195.54 229.94 194.91 230.16 193.37 230.17 192.73 230.41 191.43 231.3 188.18 231.54 187.75 232.19 184.49 231.82 183.84 231.16 183.84 230.72 181.44 231.19 181.3 219.93 182.16 219.67 184.78 220.07 186.96 220.25 189.79 220.45 191.09 220.43 193.47 219.32 194.47 218.21 196.49 217.32 197.14 217.75 198 217.53 200.19 218.14 202.15 218.56 204.32 218.32"/>
      <polyline id="Niagara_Falls-11" data-name="Niagara Falls-11" class="cls-2" points="155.42 223.69 156.16 223.9 158.53 222.34 161.55 222.1 163.31 222.72 167.01 223.77 169.39 223.08 171.12 222.19 172.82 219.14 174.99 218.02 176.07 218.23 178.46 218.84 181.3 219.93 182.16 219.67 181.92 216.63 181.68 215.78 181.63 211.42 181.18 210.12 181.34 204.69 182.16 200.78 181.07 200.79 179.35 201.02 175.65 201.06 173.69 201.31 173.98 206.74 163.35 207.31 163.34 206.87 163.98 205.99 164.19 204.68 163.52 204.04 163.28 202.31 163.71 201.87 160.23 201.91 158.72 202.14 157.62 201.94 151.11 202.23"/>
      <polyline id="Niagara_Falls-12" data-name="Niagara Falls-12" class="cls-2" points="222 208.75 224.43 210.7 225.3 211.75 225.12 215.8 225.36 216.97"/>
      <line id="Niagara_Falls-13" data-name="Niagara Falls-13" class="cls-2" x1="217.98" y1="217.38" x2="217.77" y2="214.46"/>
      <polyline id="Niagara_Falls-14" data-name="Niagara Falls-14" class="cls-2" points="225.66 206.11 223.29 207.02 222 208.75 218.58 212.28 217.73 213.8 215.65 215.91 215.34 214.06 213.49 211.09 214.86 209.94 216.17 210.13 221.62 203.54"/>
      <line id="Niagara_Falls-15" data-name="Niagara Falls-15" class="cls-2" x1="225.45" y1="205.25" x2="225.66" y2="206.11"/>
      <polyline id="Niagara_Falls-16" data-name="Niagara Falls-16" class="cls-2" points="218.56 207.24 209.55 203.49 207.51 201.98 206.06 200.92 204.93 198.32 204.69 195.5 204.25 194.63 204.66 193.55 204.85 192.02 205.95 191.57 205.92 189.18 206.35 188.74 207.2 186.57 208.05 185.46 209.12 184.14 209.33 184.57 210.19 184.13 210.63 184.36 211.06 183.91 211.73 184.34 210.44 186.1 209.79 186.54 209.79 187.19 209.15 187.19 208.94 188.5 207.87 189.16 207.25 190.91 207.25 191.78 206.83 192.22 206.84 192.86 207.05 193.29 206.41 193.96 206.2 195.05 206.21 196.12 206.65 196.12 207.33 197.65 208.62 198.5 209.94 199.57 210.62 200.64 211.93 200.62 212.78 201.04 215.39 200.58 217.79 201.21"/>
      <polyline id="Niagara_Falls-17" data-name="Niagara Falls-17" class="cls-2" points="203.55 201.82 204.98 202.24 206.07 202 207.51 201.98"/>
      <polygon id="Niagara_Falls-18" data-name="Niagara Falls-18" class="cls-2" points="195.84 200.17 202.11 199.94 202.14 200.74 203.55 201.82 202.83 202.7 201.15 203.37 196.09 203.22 195.84 200.17"/>
      <polyline id="Niagara_Falls-19" data-name="Niagara Falls-19" class="cls-2" points="195.84 200.17 188.67 200.47 188.95 206.33 192.1 203.89 193.56 203.46 196.09 203.22"/>
      <polyline id="Niagara_Falls-20" data-name="Niagara Falls-20" class="cls-2" points="188.95 206.24 188.95 206.33 185.26 206.3 185.19 200.73"/>
      <polyline id="Niagara_Falls-21" data-name="Niagara Falls-21" class="cls-2" points="151.11 202.23 150.79 193.11 152.94 192.44 154.66 190.24 156.81 188.47 158.22 188.46 163.33 188.82 165.33 188.37 165.72 189.03 165.76 192.28 166.22 194.66 166.63 201.7 163.71 201.87"/>
      <polygon id="Niagara_Falls-22" data-name="Niagara Falls-22" class="cls-2" points="173.51 186.32 180.64 186.23 181.07 200.79 179.35 201.02 175.65 201.06 173.69 201.31 173.51 186.32"/>
      <polygon id="Niagara_Falls-23" data-name="Niagara Falls-23" class="cls-2" points="183.29 185.99 183.76 193.81 182.16 200.78 185.19 200.73 185.26 185.96 183.29 185.99"/>
      <line id="Niagara_Falls-24" data-name="Niagara Falls-24" class="cls-2" x1="188.04" y1="185.94" x2="185.26" y2="185.96"/>
      <line id="Niagara_Falls-25" data-name="Niagara Falls-25" class="cls-2" x1="188.67" y1="200.47" x2="188.4" y2="194.83"/>
      <line id="Niagara_Falls-26" data-name="Niagara Falls-26" class="cls-2" x1="185.19" y1="200.73" x2="188.67" y2="200.47"/>
      <polyline id="Niagara_Falls-27" data-name="Niagara Falls-27" class="cls-2" points="195.84 200.17 202.11 199.94 201.77 193.59 195.77 194.11 195.84 200.17"/>
      <polygon id="Niagara_Falls-28" data-name="Niagara Falls-28" class="cls-2" points="207.7 185.9 207.2 186.57 206.35 188.74 205.92 189.18 205.95 191.57 204.85 192.02 204.66 193.55 201.77 193.59 201.68 185.77 205.29 185.72 207.7 185.9"/>
      <polygon id="Niagara_Falls-29" data-name="Niagara Falls-29" class="cls-2" points="201.68 185.77 195.24 185.62 195.77 194.11 201.77 193.59 201.68 185.77"/>
      <polyline id="Niagara_Falls-30" data-name="Niagara Falls-30" class="cls-2" points="195.24 185.7 195.24 185.62 188.04 185.94 188.4 194.83 195.77 194.11"/>
      <polygon id="Niagara_Falls-31" data-name="Niagara Falls-31" class="cls-2" points="173.02 182.19 182.97 177.74 183.29 185.99 180.64 186.23 173.51 186.32 173.02 182.19"/>
      <polyline id="Niagara_Falls-32" data-name="Niagara Falls-32" class="cls-2" points="185.16 185.97 185.26 185.96 185.22 182.63 187.56 180.71"/>
      <line id="Niagara_Falls-33" data-name="Niagara Falls-33" class="cls-2" x1="195.24" y1="185.62" x2="194.94" y2="180.42"/>
      <line id="Niagara_Falls-34" data-name="Niagara Falls-34" class="cls-2" x1="201.68" y1="185.77" x2="201.34" y2="180.34"/>
      <polyline id="Niagara_Falls-35" data-name="Niagara Falls-35" class="cls-2" points="173.02 182.19 180.29 178.95 179.56 166.04 172.19 166.56 172.33 169.23"/>
      <line id="Niagara_Falls-36" data-name="Niagara Falls-36" class="cls-2" x1="182.92" y1="174.05" x2="182.92" y2="174.2"/>
      <polyline id="Niagara_Falls-37" data-name="Niagara Falls-37" class="cls-2" points="182.92 174.2 182.97 177.74 185.28 179.77 187.56 180.71 187.49 174.2"/>
      <polygon id="Niagara_Falls-38" data-name="Niagara Falls-38" class="cls-2" points="187.49 174.2 182.92 174.05 182.18 165.8 186.94 165.52 187.49 174.2"/>
      <polygon id="Niagara_Falls-39" data-name="Niagara Falls-39" class="cls-2" points="187.56 180.71 189.95 180.91 194.94 180.42 194.67 175.21 187.56 180.71"/>
      <polyline id="Niagara_Falls-40" data-name="Niagara Falls-40" class="cls-2" points="194.67 175.21 194.63 171.77 187.5 175.3"/>
      <polyline id="Niagara_Falls-41" data-name="Niagara Falls-41" class="cls-2" points="194.63 171.77 194.55 165.18 186.94 165.52"/>
      <polygon id="Niagara_Falls-42" data-name="Niagara Falls-42" class="cls-2" points="194.67 175.21 194.94 180.42 196.25 180.18 201.34 180.34 202.35 180.32 202 170.33 201.94 165.77 201.15 164.91 196.61 173.89 194.67 175.21"/>
      <line id="Niagara_Falls-43" data-name="Niagara Falls-43" class="cls-2" x1="201.15" y1="164.91" x2="194.69" y2="165.17"/>
      <line id="Niagara_Falls-44" data-name="Niagara Falls-44" class="cls-2" x1="202.35" y1="180.32" x2="209.67" y2="180.01"/>
      <polygon id="Niagara_Falls-45" data-name="Niagara Falls-45" class="cls-2" points="209.16 173.64 209.67 180.01 211.27 182.6 211.91 181.72 212.34 181.72 212.33 180.85 213.41 180.91 213.64 179.96 214.26 179.31 214.25 178.23 214.68 177.56 215.34 177.56 216.67 173.55 210.29 173.28 209.16 173.64"/>
      <line id="Niagara_Falls-46" data-name="Niagara Falls-46" class="cls-2" x1="209.02" y1="170.25" x2="202" y2="170.33"/>
      <line id="Niagara_Falls-47" data-name="Niagara Falls-47" class="cls-2" x1="209.16" y1="173.64" x2="209.02" y2="170.25"/>
      <line id="Niagara_Falls-48" data-name="Niagara Falls-48" class="cls-2" x1="202.11" y1="173.72" x2="209.16" y2="173.64"/>
      <polyline id="Niagara_Falls-49" data-name="Niagara Falls-49" class="cls-2" points="210.49 161.92 211.03 162.63 211.9 162.62 212.79 163.03 212.8 163.65 213.65 164.55 214.95 164.31 216.49 166.47 217.75 170.14 213.95 170.41 209.02 170.25 209.3 163.5 208.92 161.94 210.49 161.92"/>
      <polyline id="Niagara_Falls-50" data-name="Niagara Falls-50" class="cls-2" points="179.56 166.04 182.18 165.8 182.13 161.67 181.1 157.77 179.23 155.4 171.89 159.19 172.19 166.56"/>
      <line id="Niagara_Falls-51" data-name="Niagara Falls-51" class="cls-2" x1="171.33" y1="150.16" x2="171.89" y2="159.19"/>
      <line id="Niagara_Falls-52" data-name="Niagara Falls-52" class="cls-2" x1="186.94" y1="165.42" x2="186.9" y2="161.62"/>
      <polygon id="Niagara_Falls-53" data-name="Niagara Falls-53" class="cls-2" points="175.47 150.11 179.23 155.4 181.1 157.77 182.13 161.67 186.9 161.62 186.84 156.75 186.2 155.79 186.36 153.57 186.29 147.93 182.62 149.21 178.86 150.07 175.47 150.11"/>
      <polyline id="Niagara_Falls-54" data-name="Niagara Falls-54" class="cls-2" points="186.9 161.62 193.95 160.78 193.54 153.72"/>
      <line id="Niagara_Falls-55" data-name="Niagara Falls-55" class="cls-2" x1="193.95" y1="160.78" x2="194.55" y2="165.18"/>
      <polygon id="Niagara_Falls-56" data-name="Niagara Falls-56" class="cls-2" points="186.29 147.93 186.36 153.57 193.54 153.72 193.83 150.36 193.04 148.72 188.9 147.26 186.29 147.93"/>
      <line id="Niagara_Falls-57" data-name="Niagara Falls-57" class="cls-2" x1="193.54" y1="153.72" x2="201.22" y2="153.62"/>
      <polyline id="Niagara_Falls-58" data-name="Niagara Falls-58" class="cls-2" points="200.94 147.49 199.13 149.08 196.08 149.56 193.04 148.72"/>
      <polyline id="Niagara_Falls-59" data-name="Niagara Falls-59" class="cls-2" points="193.04 148.63 192.77 144.6 196.71 146.73 199.13 149.08"/>
      <polyline id="Niagara_Falls-60" data-name="Niagara Falls-60" class="cls-2" points="186.29 147.82 186.05 143.43 189.99 143.84 192.77 144.6"/>
      <polyline id="Niagara_Falls-61" data-name="Niagara Falls-61" class="cls-2" points="200.53 140.15 200.94 147.49 201.22 153.62 201.78 163.5 204.44 157.49 205.11 157.91 206.41 157.89 206.41 158.33 208.99 159.74"/>
      <polyline id="Niagara_Falls-62" data-name="Niagara Falls-62" class="cls-2" points="150.79 193.11 152.94 192.44 154.66 190.24 156.81 188.47 158.22 188.46 159.8 188.58 159.37 184.31 160.24 183.66 165.88 184.02 165.9 185.77 173.02 182.19 172.34 169.23 150.51 169.84"/>
      <polygon id="Niagara_Falls-63" data-name="Niagara Falls-63" class="cls-2" points="149.98 161.63 152.95 160.1 154.04 156.14 156.34 153.94 159.85 151.51 166.1 150.22 171.33 150.16 175.47 150.11 169.5 141.62 160.87 142.28 160.56 139.99 149.46 145.6 149.98 161.63"/>
      <polygon id="Niagara_Falls_Outline" data-name="Niagara Falls Outline" class="cls-1" points="159.62 131.5 139.69 141.21 141.23 212.24 146.34 216.84 147.87 297.07 193.35 296.05 193.35 290.43 242.41 289.4 250.07 265.39 242.41 239.33 254.16 217.35 234.23 191.29 220.94 190.27 231.68 164.72 224.01 157.57 239.85 134.57 233.21 129.46 159.62 131.5"/>
    </g>
    <g id="St._Catharines" data-name="St. Catharines">
      <polyline id="St._Catharines-2" data-name="St. Catharines-2" class="cls-2" points="54.42 84.1 50.31 84.17 50.37 83.82 50.33 81.01 50.33 81.01 49.42 76.57 50.28 76.38 50.5 77.48 53.7 77.82"/>
      <polyline id="St._Catharines-3" data-name="St. Catharines-3" class="cls-2" points="19.17 112.11 18.1 112.5 12.09 112.03 12.36 116.83 13.02 118.85 15.23 122.71 15.06 127.52 15.94 129.34 17.68 130.8 19.41 131.5 20.91 167.55"/>
      <polyline id="St._Catharines-4" data-name="St. Catharines-4" class="cls-2" points="78.38 99.01 79.02 98.83 78.57 98.1 79.21 97.71 77.12 65.95 77.12 65.57 77.32 65.21 77.1 64.66 76.24 65.41 71.76 66.01 68.73 64.2 68.3 63.29 68.5 62.17 70.42 61.22 69.54 60.13 68.65 58.1 68.44 57 69.93 56.42 69.01 50.88 72.84 48.81 71.12 48.83 70.69 49.39 68.99 49.59 68.56 49.98 67.91 49.79 66.61 48.69 66.41 49.27 67.28 50.9 67.4 60.89 67.22 63.12 66.79 63.67 66.38 63.86 66.38 64.23 67.03 64.21 67.04 64.95 66.4 64.96 66.41 66.46 67.5 68.47 67.94 69.56 68.84 72.7 69.5 74.73 68.65 74.93 66.65 69.22 65.33 66.09 64.66 63.89 64.23 63.7 64.4 59.81 64.15 56.68 63.89 53.73 64.09 51.13 64.48 49.65 64.91 48.55 63.42 49.47 63.01 51.52 63.28 56.49 63.1 58.9 62.72 63.53 63.18 64.83 62.33 65.58 62.55 66.51 60.64 68.36 56.61 71.93 53.41 73.26 52.36 74.2 51.08 74.57 44.06 79.85 43.42 80.41 42.57 80.41 39.17 82.67 35.12 84.39 32.55 84.61 32.31 82.21 29.09 81.87 28.87 80.77 28 80.95 28.92 85.39"/>
      <polyline id="St._Catharines-5" data-name="St. Catharines-5" class="cls-2" points="30.75 165.77 33.95 164.25 34.6 164.62 35.66 164.42 39.05 162.16 44.82 159.88 45.05 161.54 47.18 160.39 49.33 159.99 58.33 159.88 57.05 161.02 57.06 162.13 56.87 163.42 57.29 163.42 63.05 160.94 79.68 153.52 84.16 151.63 84.16 151.07 85.86 150.88 86.04 148.64 90.34 149.32 91.4 148.77 91.39 148.22 92.68 148.2 92.67 147.65 94.19 147.63 96.72 146.3 93.03 141.36 96.65 139.84 97.73 139.45 96.83 135.95 95.55 136.52 94.9 136.34 92.78 138.22 92.35 137.84 90.86 138.79 90.43 138.61 87.65 139.38 85.29 140.34 85.07 139.05 84.79 133.32 84.33 130.56 83.61 124.64 82.96 124.48 83.16 122.24 82.5 120.77 82.9 119.48 81.27 108.24 81.7 107.85 80.58 104.36 81.01 103.98 78.38 99.01"/>
      <polygon id="St._Catharines-6" data-name="St. Catharines-6" class="cls-2" points="46.78 114.03 39.02 112.55 28.75 110.2 26.84 110.03 22.61 111.33 24.32 113.02 26.09 118.73 27.64 122.78 39.29 117.28 46.78 114.03"/>
      <polygon id="St._Catharines-7" data-name="St. Catharines-7" class="cls-2" points="54.76 115.94 47.74 114.21 57.81 109.68 56.51 113.55 54.76 115.94"/>
      <polygon id="St._Catharines-8" data-name="St. Catharines-8" class="cls-2" points="67.79 129.13 67.55 126.37 68.2 126.36 68.17 124.15 67.72 123.22 71.12 121.88 71.76 121.83 71.75 120.58 75.81 121.27 82.41 121 83.07 122.47 79.68 124.18 77.57 126.44 74.61 128.5 72.06 129.27 67.79 129.13"/>
      <polygon id="St._Catharines-9" data-name="St. Catharines-9" class="cls-2" points="51.6 130.64 52.45 129.89 57.58 129.82 59.27 128.69 60.1 126.82 64.37 127.88 67.79 129.13 68.29 129.15 68.82 143.19 68.64 145.77 62.67 144.93 60.7 141.79 58.93 136.45 58.52 135.17 57.63 134.06 55.17 132.8 53.33 132.09 51.6 130.64"/>
      <polyline id="St._Catharines-10" data-name="St. Catharines-10" class="cls-2" points="44.94 160.12 45.78 159.18 45.46 151.92 54.43 152.79 57.87 154.41 63.38 152.11 63.39 153.42 61.74 157.32 58.36 160.13"/>
      <polyline id="St._Catharines-11" data-name="St. Catharines-11" class="cls-2" points="33.36 156.19 32.33 136.96 31.41 136.04 29.06 136.07 28.3 135.33 28.25 131.43 19.64 131.72"/>
      <polyline id="St._Catharines-12" data-name="St. Catharines-12" class="cls-2" points="29.13 88.42 28.33 92.63 29.39 93.17 31.99 94.99 26.81 108 26.61 108.91 26.84 110.03 25.55 110.42 19.4 112.34 17.65 108.29 16.79 107.01 15.48 105.74 13.34 104.46 11.83 102.81 10.95 100.24 9.87 100.62 9.18 94.72 13.4 92.44 14.67 92.25 16.81 91.65 17.86 91.28 29.1 85.6"/>
      <polyline id="St._Catharines-13" data-name="St. Catharines-13" class="cls-2" points="32.72 84.81 33.36 85.72 32.74 86.27 33.19 88.69 29.08 88.76"/>
      <polyline id="St._Catharines-14" data-name="St. Catharines-14" class="cls-2" points="31.99 94.99 32.18 93.68 40.25 90.08 42.14 89.13 45.96 86.68 45.97 87.61 54.15 84.08 53.47 73.47"/>
      <polygon id="St._Catharines-15" data-name="St. Catharines-15" class="cls-2" points="74.56 93.3 73.96 92.08 70.44 83.43 68.68 78.26 68 75.87 65.66 76.64 65.48 79.23 64.23 81.46 64.47 82.57 62.19 88.89 58.64 95.22 59.13 100.02 74.56 93.3"/>
      <polyline id="St._Catharines-16" data-name="St. Catharines-16" class="cls-2" points="65.48 79.23 45.97 87.61 47.04 105.16 59.13 100.02"/>
      <polyline id="St._Catharines-17" data-name="St. Catharines-17" class="cls-2" points="47.04 105.16 38.97 108.77 39.02 112.55"/>
      <polyline id="St._Catharines-18" data-name="St. Catharines-18" class="cls-2" points="78.31 99.24 77.43 99.25 74.56 93.3"/>
      <polyline id="St._Catharines-19" data-name="St. Catharines-19" class="cls-2" points="62.9 98.39 63.49 116.25 81.2 108.44 81.61 108.08 81.55 107.9"/>
      <line id="St._Catharines-20" data-name="St. Catharines-20" class="cls-2" x1="57.66" y1="109.73" x2="63.2" y2="107.24"/>
      <polyline id="St._Catharines-21" data-name="St. Catharines-21" class="cls-2" points="36.49 131.91 35.83 130.26 34.12 129.54"/>
      <polyline id="St._Catharines-22" data-name="St. Catharines-22" class="cls-2" points="27.64 122.78 29.59 126.64 34.12 129.54 35.16 128.43 39.84 126.51 39.29 117.28"/>
      <polyline id="St._Catharines-23" data-name="St. Catharines-23" class="cls-2" points="54.74 115.94 47.74 114.21 46.78 114.03"/>
      <polyline id="St._Catharines-24" data-name="St. Catharines-24" class="cls-2" points="39.81 126.37 39.84 126.51 60.61 117.39 54.74 115.94"/>
      <polyline id="St._Catharines-25" data-name="St. Catharines-25" class="cls-2" points="63.49 116.25 63.51 118.11 60.61 117.39"/>
      <line id="St._Catharines-26" data-name="St. Catharines-26" class="cls-2" x1="71.75" y1="120.58" x2="63.51" y2="118.11"/>
      <line id="St._Catharines-27" data-name="St. Catharines-27" class="cls-2" x1="47.82" y1="123.01" x2="48.41" y2="130.48"/>
      <polyline id="St._Catharines-28" data-name="St. Catharines-28" class="cls-2" points="84.23 130.79 80.83 130.83 80.63 132.5 76.76 129.95 76.14 130.33 74.61 128.5"/>
      <polyline id="St._Catharines-29" data-name="St. Catharines-29" class="cls-2" points="68.82 143.19 74.37 142.93 74.8 144.59 77.78 144.18 78.45 145.29 84.17 142.82 85.44 141.68 86.07 141.67 85.88 140.31 85.2 140.58"/>
      <polyline id="St._Catharines-30" data-name="St. Catharines-30" class="cls-2" points="62.67 144.93 63.32 147.31 63.38 152.11"/>
      <polyline id="St._Catharines-31" data-name="St. Catharines-31" class="cls-2" points="51.6 130.64 50.74 130.08 48.41 130.48 46.71 131.43 45.47 133.85 43.14 135.36"/>
      <polyline id="St._Catharines-32" data-name="St. Catharines-32" class="cls-2" points="33.36 156.19 36.53 154.1 36.76 153.55 39.95 153.33 40.15 152.4 41.84 151.64 42.48 150.89 42.86 147.74 44.34 146.8 44.97 145.5 43.87 143.49 45.1 139.21 44.88 136.81 44.21 135.71 43.14 135.36 41.64 134.99 38.42 133.75 36.49 131.91 34.99 131.19 28.25 131.43"/>
      <polyline id="St._Catharines-33" data-name="St. Catharines-33" class="cls-2" points="33.36 156.19 28.3 160.68 27.09 165.89 23.92 167.95 21.35 168.72 21.13 167.79 12.79 167.89 13.31 173.81 12.93 176.58 13.35 176.77 13.79 177.14 15.92 176.38 17.2 176.91 17.19 176.36 21.45 176.12 22.31 176.85 26.58 176.61 31.04 175.45 32.12 175.8 32.32 174.87 39.96 172.21 39.94 171.26 39.3 171.29 38.43 169.99 33.08 167.65 32.23 167.66 30.92 166.01 31.97 163.59 31.88 161.95 33.01 161.36 34.07 161.54 35.12 160.98 35.1 158.93 37.22 157.62 38.28 156.13 39.74 154.92 39.95 153.33"/>
      <polyline id="St._Catharines-34" data-name="St. Catharines-34" class="cls-2" points="39.95 153.33 41.86 153.31 45.46 151.92"/>
      <polygon id="St._Catharines_Outline" data-name="St. Catharines Outline" class="cls-1" points="76.84 40.03 56.91 41.06 54.36 60.99 .19 89.09 2.75 109.02 3.26 118.22 9.39 132.02 9.39 157.05 3.26 157.57 3.77 181.58 15.52 187.71 48.74 176.98 54.87 170.34 105.97 149.9 106.48 139.68 97.28 128.44 89.11 122.31 84 43.61 76.84 40.03"/>
    </g>
    <g id="Thorold">
      <line id="Thorold-2" class="cls-2" x1="100.26" y1="206.89" x2="100.28" y2="208.32"/>
      <polyline id="Thorold-3" class="cls-2" points="102.44 196.55 101.51 199.24 100.26 206.89"/>
      <polygon id="Thorold-4" class="cls-2" points="45.75 224.18 48.88 227.66 51.98 228.91 54.49 228.32 57.38 227.99 58.43 228.83 59.14 246.79 71.73 246.64 71.69 243.21 75.33 243.34 75.37 246.37 89.7 246.43 91.39 246.67 94.27 245.23 102.76 244.7 104.29 243.69 104.24 240.36 104.98 237.61 106.71 235.88 108.64 236.14 110.59 237.25 116 239.15 117.75 239.42 121.6 237.82 124.26 234.76 126.01 234.73 128.33 235.67 128.89 235.19 129.33 223.45 128.56 223.02 124.12 222.8 123.93 191.4 122.5 169.06 122.85 166.65 123.41 164.23 113.99 167.61 69.01 184.28 69.4 185.13 70.76 185.12 70.19 185.96 71.96 188.49 71.18 188.78 70 186.68 68.65 186.41 68.07 186.55 68.08 187.12 66.53 187.42 65.77 187.43 64.81 187.44 63.44 186.76 62.1 187.62 62.89 188.45 62.69 189.59 61.74 189.47 61.73 188.46 60.37 188.06 53.83 191.25 53.07 190.69 53.23 188.15 44.54 188.68 44.91 202.83 44.37 205.51 45.38 209.04 45.75 224.18"/>
      <polyline id="Thorold-5" class="cls-2" points="107.62 208.22 124.18 207.7 124.08 191.34 123.66 184.89 120.12 184.74 115.46 183.54 109.65 183.61 108.9 186.01 107.77 187.72"/>
      <polygon id="Thorold-6" class="cls-2" points="80.96 181.55 86.56 179.49 86.97 180.34 88.13 181.18 91.83 183.38 93.98 184.36 96.3 184.62 96.35 189.05 93.09 190.02 92.5 190.45 86.3 189.68 83.2 189.85 81.27 189.61 81.41 186.06 82.74 183.23 80.96 181.55"/>
      <polyline id="Thorold-7" class="cls-2" points="102.44 196.55 107.77 187.72 106.21 187.05 106.59 185.48 105.41 185.34 102.92 186.94 100.59 187.52 99.63 188.25 96.35 189.05 93.09 190.02 92.5 190.45 86.57 195.76 87.36 197.01 91.23 198.1 93.79 201.74 94.97 201.6 96.51 202.49 98.26 203.25 98.88 205.08 99.86 206.61"/>
      <polygon id="Thorold-8" class="cls-2" points="100.28 208.32 102.8 208.42 103.37 208.85 103.95 208.4 107.62 208.22 108.1 214.56 107.51 215 104.82 216.02 102.56 216.46 101.33 215.8 101.51 214.66 98.99 214.97 100.28 208.32"/>
      <polyline id="Thorold-9" class="cls-2" points="105.08 237.51 104.68 235.68 102.92 235.57 99.44 235.61 99.45 236.87 90.74 236.7 89.15 233.61 82.96 233.69 79.63 231.46 72.27 228.57 58.4 228.74"/>
      <polygon id="Thorold_Outline" data-name="Thorold Outline" class="cls-1" points="127.94 153.48 57.93 181.07 36.98 185.67 37.49 229.11 47.71 238.82 48.23 255.68 114.66 255.17 135.61 243.93 135.61 215.82 131.01 215.31 131.52 157.05 127.94 153.48"/>
    </g>
    <g id="Welland">
      <polygon id="Welland-2" class="cls-2" points="81.09 353.88 75.63 334.81 53.33 335.08 52.6 315.96 49.9 316.89 46.06 320.07 46.54 317.04 46.61 309.62 46.41 292.37 45.96 283.46 53.29 283.37 52.96 276.95 53.47 276.44 55.04 276.42 55.48 275.65 57.72 275.63 57.01 276.39 74.58 276.56 74.54 273.04 78.47 272.99 78.29 276.27 93.49 276.33 95.85 275.67 97.01 274.9 105.46 274.67 107.14 273.4 107.42 267.6 108.4 266.21 110.43 266.05 118.57 269.09 120.94 269.45 124.14 267.53 126.62 264.85 128.32 264.46 131.19 265.31 131.71 293.85 131.11 299.41 132.24 323.69 104.54 324.03 103.21 324.67 90.19 324.69 83.48 342.4 81.09 353.88"/>
      <polyline id="Welland-3" class="cls-2" points="90.16 324.67 94.73 314.32 92.71 313.59 70.19 314.37 71.64 323.27 73.86 323.19 73.87 324.53 53.07 325.1"/>
      <polyline id="Welland-4" class="cls-2" points="70.19 314.37 71.28 307.44 59.24 307.59 57.83 306.85 56 308.5 56.13 310.51 57.24 314.39 56.88 315.97 54.26 316.57 52.73 315.96"/>
      <polyline id="Welland-5" class="cls-2" points="97.41 307.13 94.73 314.32 94.58 314.26"/>
      <polyline id="Welland-6" class="cls-2" points="46.47 290.7 48.7 290.68 48.75 293.03 60.01 293"/>
      <polyline id="Welland-7" class="cls-2" points="64.21 305.16 62.36 305.93 59.17 306.21 57.83 306.85"/>
      <polyline id="Welland-8" class="cls-2" points="73.25 302.52 71.28 307.44 73.67 307.75 81.01 307.32 80.97 304.37 83.36 304.29 83.31 299.88 81.38 299.9 81.77 298.13 87.09 293.05 82.01 293.11 79.14 296.59 77.19 299.95 75.06 299.48"/>
      <polyline id="Welland-9" class="cls-2" points="72.54 300.01 72.23 301.9 73.25 302.52"/>
      <polyline id="Welland-10" class="cls-2" points="81.01 307.32 97.41 307.13 98.76 299.69 83.31 299.88"/>
      <polyline id="Welland-11" class="cls-2" points="74.04 299.25 75.06 299.47 79.12 294.87 80.19 292.76 79.09 292.2 60.01 293 60.54 294.26 59.96 303.3 62.34 303.9 64.21 305.16 66.02 303.12 68.51 300.95 70.24 300.04 72.54 300.01"/>
      <line id="Welland-12" class="cls-2" x1="67.07" y1="285.95" x2="67.14" y2="292.71"/>
      <polyline id="Welland-13" class="cls-2" points="80.19 292.76 81.79 284.96 83.44 281.49 89.57 277.76 88.57 276.37"/>
      <polyline id="Welland-14" class="cls-2" points="66.95 276.54 67.07 285.95 48.65 286.31 48.7 290.68"/>
      <polygon id="Welland_Outline" data-name="Welland Outline" class="cls-1" points="100.35 262.83 111.59 259.77 119.25 262.32 128.96 257.72 136.63 257.72 137.65 330.28 95.75 331.31 84.51 359.92 75.31 359.92 67.13 341.02 47.71 341.02 35.96 318.02 36.47 273.56 51.8 266.41 95.24 266.92 100.35 262.83"/>
    </g>
    <g id="Fort_Erie" data-name="Fort Erie">
      <polygon id="Fort_Erie-2" data-name="Fort Erie-2" class="cls-2" points="186.72 316.41 186.92 320.38 191.16 320.18 194.36 401.49 200.21 406.57 202.45 409.49 205.93 413.97 206.04 416.16 205.46 418.66 207.85 419.94 212.22 414.36 211.66 412.06 208.29 409.89 207.78 404.57 212.23 400.17 217.73 398.27 221.9 397.84 227.8 399.4 228.33 400.78 230.56 398.57 232.28 395.7 234.53 394.19 236.73 391.27 239.18 389.07 240.8 388.99 241.19 387.57 247.49 387.73 252.53 390.98 254.17 390.9 255.81 391.29 257.24 391.9 259.09 391.58 258.99 389.51 260.59 388.95 261.66 387.04 262.45 384.2 266.78 382.13 271.21 382.39 274.17 381.07 276.3 381.89 278.4 381.79 278.51 379.47 280.56 378.2 284.05 378.25 286.88 378.82 289.75 380.55 292.2 378.33 297.29 377.85 301.19 376.49 305.41 372.09 306.97 365.97 310.19 360.45 313.36 358.44 313.78 352.82 311.64 347.01 309.03 336.76 301.26 330.15 297.12 326.4 293.57 325.17 290.35 326.02 286.63 326.43 275.61 324.64 271.41 319.73 270.67 313.95 264.01 311.01 254.58 308.91 246.5 305.35 243.5 301.3 240.49 301.45 240.61 313.56 186.72 316.41"/>
      <polygon id="Fort_Erie-3" data-name="Fort Erie-3" class="cls-2" points="225.95 326.14 234.21 325.74 234.32 328.06 234.95 328.03 235.08 330.75 234.42 330.78 234.6 331.76 233.37 331.82 233.5 332.97 228.02 335.12 228.36 337.66 229.16 337.62 229 341.11 226.99 341.21 226.6 334.94 218.93 335.08 218.75 331.34 221.78 331.23 223.92 332.51 224.08 330.64 224.03 329.72 224.96 329.67 225.12 328.26 226.27 327.98 225.95 326.14"/>
      <polyline id="Fort_Erie-4" data-name="Fort Erie-4" class="cls-2" points="240.46 313.32 238.95 315.72 237.36 316.48 237.52 319.81 241.9 319.06 241.59 317.45 244.6 317.31 245.24 316.1 243.52 314.09 244.63 312.87 247.64 312.72 247.29 305.53 246.34 305.11 243.36 301.06"/>
      <polyline id="Fort_Erie-5" data-name="Fort Erie-5" class="cls-2" points="234.37 393.95 233.32 386.3 230.03 386.46 227.51 386.83 226.52 385.71 224.46 386.28 223.81 387.24 221.97 387.56 222.08 389.88 218.82 390.04 218.93 392.14 217.08 392.68 217.51 396.4 213.33 396.6 209.5 399.35 207.06 401.8 207.64 404.33"/>
      <polyline id="Fort_Erie-6" data-name="Fort Erie-6" class="cls-2" points="247.35 387.49 247.25 385.68 248.4 385.34 247.79 382.58 247.09 382.37 247.22 380.28 244.64 379.93 244.33 378.56 243.54 378.6 243.58 377.19 240.79 377.56 240.52 376.64 238.29 378.61 233.87 378.6 233.86 373.71 232.76 373.76 232.37 371.92 231.38 370.8 226.07 371.3 225.91 377.83 224.77 378.11 224.86 380.04 226.24 379.9 226.35 382.23 225.56 382.74 226.67 383.61 226.52 385.71"/>
      <polyline id="Fort_Erie-7" data-name="Fort Erie-7" class="cls-2" points="292.11 336.4 291.31 334.34 290.21 325.78"/>
      <line id="Fort_Erie-8" data-name="Fort Erie-8" class="cls-2" x1="311.48" y1="346.77" x2="293.88" y2="348.66"/>
      <polyline id="Fort_Erie-9" data-name="Fort Erie-9" class="cls-2" points="293.88 348.66 292.9 338.22 292.11 336.4 285.06 337.22 284.09 339.13 277.82 339.21 277.75 337.83 271.62 336.47 271.22 337.43 269.8 337.26 269.97 340.55 277.79 348.28 279.49 349.36 280.06 351.67 284.36 354.01 294.43 355.15 293.88 348.66"/>
      <polyline id="Fort_Erie-10" data-name="Fort Erie-10" class="cls-2" points="280.06 351.67 280.29 356.49 275.2 357.49 275.4 361.5 295.13 360.01 293.34 355.03"/>
      <polyline id="Fort_Erie-11" data-name="Fort Erie-11" class="cls-2" points="294.39 355.12 301.79 355.76 302.26 358.26 302.32 359.66 295.13 360.01"/>
      <polyline id="Fort_Erie-12" data-name="Fort Erie-12" class="cls-2" points="313.21 358.2 304.54 357.22 301.79 355.76"/>
      <polyline id="Fort_Erie-13" data-name="Fort Erie-13" class="cls-2" points="302.32 359.66 302.07 361.45 303.97 364.69 305.74 362.98 307.52 364.52"/>
      <polyline id="Fort_Erie-14" data-name="Fort Erie-14" class="cls-2" points="283.9 378.01 284.25 375.68 291.43 375.09 292.17 375.75 298 371.62 303.97 364.69"/>
      <line id="Fort_Erie-15" data-name="Fort Erie-15" class="cls-2" x1="298" y1="371.62" x2="297.96" y2="359.87"/>
      <polyline id="Fort_Erie-16" data-name="Fort Erie-16" class="cls-2" points="278.37 379.23 278.45 376.19 277.46 374.84 277.32 367.4 274.66 365.43 274 361.57 275.4 361.5"/>
      <polyline id="Fort_Erie-17" data-name="Fort Erie-17" class="cls-2" points="285.89 360.7 285.93 362.56 283.89 364.04 283.52 365.47 285.09 367.38 285.49 375.57 284.25 375.68 283.9 378.01"/>
      <polygon id="Fort_Erie_Outline" data-name="Fort Erie Outline" class="cls-1" points="231.68 306.78 231.68 295.54 250.58 295.03 275.11 305.25 281.24 315.47 299.13 315.98 318.55 331.31 324.68 359.92 308.33 385.47 269.49 394.16 266.42 400.29 222.48 410.51 215.83 426.86 201.02 427.89 193.35 419.71 194.37 413.58 184.66 402.34 181.6 324.15 173.42 321.6 172.91 308.82 231.68 306.78"/>
    </g>
  </g>
</svg>
