<?xml version="1.0" encoding="UTF-8"?>
<svg id="Layer_2" data-name="Layer 2" xmlns="http://www.w3.org/2000/svg" viewBox="0 0 431.98 597.37">
  <defs>
    <style>
      .cls-1 {
        fill: none;
        stroke: #9b9b9b;
        stroke-dasharray: 1 2;
        stroke-miterlimit: 10;
        stroke-width: .5px;
      }
    </style>
  </defs>
  <g id="Layer_1-2" data-name="Layer 1">
    <g id="Niagara_Region_Map" data-name="Niagara Region Map">
      <g id="Port_Colborne" data-name="Port Colborne">
        <polyline id="Port_Colborne-2" data-name="Port Colborne" class="cls-1" points="100.19 574.43 104.3 574.11 100.88 541.18 103.63 538.65 105.07 535.07 108.13 533.38 107.84 529.64 115.54 529.04 115.68 525.82 119.17 523.24 119.45 520.61 122.72 520.35 126.36 533.41 128.37 519.91 139.93 518.15 133.13 538.1 132.94 542.15 149.06 540.62 150.26 552.69 151.53 553.18 152.14 561.02 151.43 561.29 152.04 569.07 142.05 570.44 142.29 573.59 140.3 573.18 141.4 587.3"/>
        <polyline id="Port_Colborne-3" data-name="Port Colborne" class="cls-1" points="100.25 574.42 74.95 508.31 101.49 506.24 115.38 528.74 123.42 507.39 131.71 482.45 220.45 472.08 231.63 596.35 229.74 594.18 227 593.83 224.12 591.47 221.19 591.7 217.72 591.11 215.13 592.47 212.81 591.2 213.23 590.04 211.7 589.56 211.37 588.46 204.11 583.27 198.73 580.54 191.06 579.71 189.38 580.11 189.01 581.86 187.94 583.67 182.97 582.93 179.68 584.91 179.31 586.36 177.6 589.64 174.29 591.06 168.47 592.07 165.32 589.47 160.81 588.1 157.65 588.61 153.36 590.11 151.51 591.68 150.88 593.18 151.78 595.1 151.08 595.74 149.76 594.39 148.56 594.78 147.41 592.59 147.04 591.16 141.37 587.6"/>
        <polyline id="Port_Colborne-4" data-name="Port Colborne" class="cls-1" points="141.37 587.6 137.06 585.92 134.36 585.86 132.73 586.85 131.98 586.61 132.07 584.58 131.05 584.1 130.12 584.74 131.61 591.24 132.6 594.6 131.19 595.57 130.47 592.46 129.74 592.51 130.21 595.65 128.6 596.91 127.41 587.83 127.39 584.68 126.87 584.13 125.92 584.5 125.48 588.27 125.03 588.87 124.73 591.18 123 591.05 123.44 587.28 123.83 586.09 122.85 586.16 121.9 586.54 121.13 586.03 121.56 585.14 120.33 585.23 119.31 584.72 118.36 585.09 117.86 585.13 117.29 584.02 116.09 584.41 113.43 584.91 110.52 585.4 109.41 586.65 109.7 587.49 109.59 588.92 109.22 590.67 107.86 591.93 108.51 594.17 107.38 595.41 105.47 596.13 102.38 594.08 100.25 574.42"/>
      </g>
      <g id="Niagara-on-the-Lake">
        <polygon id="Niagara-on-the-Lake-2" data-name="Niagara-on-the-Lake" class="cls-1" points="137.02 48.09 139.96 93.57 139.52 96.9 141.22 100.69 142.22 103.55 145.14 127.57 145.64 129.01 148.32 155.18 149.06 156.11 161.37 150.01 162.43 159.76 162.45 161.18 163.18 161.68 181.89 152.39 182.86 154.28 184.3 154.02 198.36 154.82 215.97 153.88 224.55 153.05 233.61 152.94 235.96 152.46 248.35 152.07 250.99 152.73 251.68 150.58 253.09 149.62 254.98 148.39 259.27 148.13 262.8 144.73 268.04 143.73 276.35 141 279.66 139.78 283.26 142.09 283.79 146.38 282.39 148.3 281.2 149.28 280.52 150.71 281.46 151.42 285.5 150.41 291.7 150.33 291.42 147.25 290.45 144.88 288.15 132.27 281.63 125.46 278.71 120.72 277.73 118.1 278.81 109.05 277.33 104.78 276.82 102.16 281.89 87.08 282.31 83.75 281.81 80.64 280.09 77.82 276.49 74.75 275.27 72.16 275.25 70.48 274.52 70.03 273.99 65.98 274.67 61.93 276.03 56.89 277.17 51.65 277.15 50.2 276.64 47.37 275.64 44.75 274.36 36.67 274.08 33.56 275.19 25.45 275.6 21.63 275.55 17.82 275.27 14.26 274.55 12.36 272.62 10.24 272.13 10.01 271.18 10.98 270.72 10.51 271.16 9.54 270.45 8.36 270.69 8.12 272.12 9.04 272.35 8.1 270.92 7.15 265.89 6.03 263 4.16 261.33 3.46 257.96 .42 251.77 .25 246.51 .56 241.77 1.31 239.16 2.79 236.1 4.25 228.96 5.76 223.75 7.97 221.85 8.47 219.47 8.74 217.32 8.53 214.93 8.07 213.26 7.64 210.63 7.43 208.95 5.76 208.22 5.77 207.53 6.02 205.39 6.28 202.53 7.53 201.81 7.78 200.65 9.21 199.23 9.23 198.27 9.72 190.95 14.8 189.07 16.24 187.18 17.96 186.47 18.42 185.74 18.43 185.51 19.16 185.28 19.88 183.87 20.84 182.69 21.58 181.97 21.83 181.25 21.84 180.56 22.54 180.08 23.03 178.68 24.25 177.72 24.72 177.02 24.73 176.06 25.23 175.83 25.71 175.35 26.44 173.22 27.89 171.1 29.58 169.69 30.32 168.27 30.79 166.85 31.05 165.9 31.79 164.94 32.28 164.73 32.98 161.4 34.92 157.38 37.6 154.78 39.3 153.13 40.52 152.2 41.47 151.49 42.21 150.77 42.94 149.84 43.41 148.66 43.42 147.7 43.91 146.98 44.16 146.29 44.9 146.07 46.56 143.44 46.84 141.54 47.1 140.82 47.11 139.64 47.36 138.46 47.59 137.02 48.09"/>
        <polyline id="Niagara-on-the-Lake-3" data-name="Niagara-on-the-Lake" class="cls-1" points="240.38 152 240.39 152.22 240.17 152.25"/>
        <line id="Niagara-on-the-Lake-4" data-name="Niagara-on-the-Lake" class="cls-1" x1="233.66" y1="152.86" x2="221.44" y2="148.88"/>
        <polyline id="Niagara-on-the-Lake-5" data-name="Niagara-on-the-Lake" class="cls-1" points="221.22 148.8 220.98 148.72 220.98 148.51"/>
        <line id="Niagara-on-the-Lake-6" data-name="Niagara-on-the-Lake" class="cls-1" x1="220.97" y1="148.05" x2="220.53" y2="129.18"/>
        <polyline id="Niagara-on-the-Lake-7" data-name="Niagara-on-the-Lake" class="cls-1" points="220.53 128.96 220.52 128.72 220.74 128.72"/>
        <polyline id="Niagara-on-the-Lake-8" data-name="Niagara-on-the-Lake" class="cls-1" points="221.22 128.66 226.71 128.16 238.8 128.02"/>
        <polyline id="Niagara-on-the-Lake-9" data-name="Niagara-on-the-Lake" class="cls-1" points="239.02 128.01 239.26 128.01 239.4 128.2"/>
        <polyline id="Niagara-on-the-Lake-10" data-name="Niagara-on-the-Lake" class="cls-1" points="239.7 128.57 239.81 128.73 240.38 151.76"/>
        <polyline id="Niagara-on-the-Lake-11" data-name="Niagara-on-the-Lake" class="cls-1" points="278.88 108.97 275.26 109.02 271.03 109.52 268.91 111.69 268.26 117.41 269.99 123.13 271.91 124.29 277.26 131.84 279.24 138.25 279.98 139.69 282.55 137.03 283.46 132.49 284.29 128.08"/>
        <polyline id="Niagara-on-the-Lake-12" data-name="Niagara-on-the-Lake" class="cls-1" points="270.97 7.07 272.43 8.02 272.2 8.96 270.74 8.04 270.5 8.28 271.24 9.45 270.77 10.43 271.26 10.9 272.21 9.93 272.67 10.16 274.6 12.28 275.35 14.18 271.79 14.46 268.89 12.59 264.91 18.36 262.08 19.11 260.63 19.13 258.36 18.03 256.6 20.36 265.73 25.96 261.05 33.64 260.57 33.64 260.1 32.47 258.89 32.72 257.73 34.4 253.2 34.46 254.21 35.86 252.73 35.88 248.74 23.16 242.33 23.16 238.1 27.96 237.4 27.51 233.49 16.59 232.98 16.6 232 15.64 231.98 14.22 233.64 13.96 235.56 13.24 237.46 12.73 239.33 11.75 241.26 11.72 241.25 11.27 237.4 3.56"/>
        <polyline id="Niagara-on-the-Lake-13" data-name="Niagara-on-the-Lake" class="cls-1" points="248.47 .37 256.18 5.59 259.32 1.47"/>
        <polygon id="Niagara-on-the-Lake-14" data-name="Niagara-on-the-Lake" class="cls-1" points="210.47 47.12 210.5 49.54 208.36 50.02 206.69 49.31 206.19 48.38 204.8 51 202.87 51.02 199.87 51.06 200.08 68.89 200.74 69.64 200.76 71.3 225.04 70.31 224.45 61.01 225.16 60.3 225.63 58.61 224.4 57.2 224.32 50.07 220.75 50.11 218.57 47.27 216.15 47.05 212.64 47.44 211.88 46.41 210.47 47.12"/>
        <polyline id="Niagara-on-the-Lake-15" data-name="Niagara-on-the-Lake" class="cls-1" points="162.24 155.31 162.03 155.39 162.03 155.18"/>
        <polyline id="Niagara-on-the-Lake-16" data-name="Niagara-on-the-Lake" class="cls-1" points="161.4 149.04 160.84 139.45 160.81 136.93 161.17 135.64"/>
        <polyline id="Niagara-on-the-Lake-17" data-name="Niagara-on-the-Lake" class="cls-1" points="161.22 135.39 161.3 135.18 161.52 135.23"/>
        <line id="Niagara-on-the-Lake-18" data-name="Niagara-on-the-Lake" class="cls-1" x1="161.97" y1="135.3" x2="164.39" y2="135.76"/>
        <polyline id="Niagara-on-the-Lake-19" data-name="Niagara-on-the-Lake" class="cls-1" points="164.61 135.78 164.85 135.83 164.79 135.62"/>
        <line id="Niagara-on-the-Lake-20" data-name="Niagara-on-the-Lake" class="cls-1" x1="164.71" y1="135.14" x2="164.17" y2="132.49"/>
        <polyline id="Niagara-on-the-Lake-21" data-name="Niagara-on-the-Lake" class="cls-1" points="164.14 132.25 164.08 132.03 164.32 132.03"/>
        <polyline id="Niagara-on-the-Lake-22" data-name="Niagara-on-the-Lake" class="cls-1" points="164.78 132.08 175.75 132.62 183.79 131.79 187.21 130.89"/>
        <polyline id="Niagara-on-the-Lake-23" data-name="Niagara-on-the-Lake" class="cls-1" points="187.43 130.84 187.67 130.78 187.83 130.97"/>
        <polyline id="Niagara-on-the-Lake-24" data-name="Niagara-on-the-Lake" class="cls-1" points="188.15 131.29 189.1 132.21 191.8 133.63"/>
        <polyline id="Niagara-on-the-Lake-25" data-name="Niagara-on-the-Lake" class="cls-1" points="192.02 133.73 192.21 133.84 192.21 134.08"/>
        <line id="Niagara-on-the-Lake-26" data-name="Niagara-on-the-Lake" class="cls-1" x1="192.22" y1="134.48" x2="192.22" y2="135.1"/>
        <polyline id="Niagara-on-the-Lake-27" data-name="Niagara-on-the-Lake" class="cls-1" points="192.23 135.29 192.23 135.53 192.45 135.63"/>
        <line id="Niagara-on-the-Lake-28" data-name="Niagara-on-the-Lake" class="cls-1" x1="192.96" y1="135.95" x2="193.71" y2="136.39"/>
        <polyline id="Niagara-on-the-Lake-29" data-name="Niagara-on-the-Lake" class="cls-1" points="193.96 136.55 194.17 136.68 194.18 136.9"/>
        <line id="Niagara-on-the-Lake-30" data-name="Niagara-on-the-Lake" class="cls-1" x1="194.18" y1="137.38" x2="194.31" y2="147.6"/>
        <polyline id="Niagara-on-the-Lake-31" data-name="Niagara-on-the-Lake" class="cls-1" points="194.31 147.84 194.31 148.05 194.07 148.08"/>
        <polyline id="Niagara-on-the-Lake-32" data-name="Niagara-on-the-Lake" class="cls-1" points="193.62 148.12 189.78 148.4 185.14 146.05"/>
        <polyline id="Niagara-on-the-Lake-33" data-name="Niagara-on-the-Lake" class="cls-1" points="184.95 145.94 184.74 145.84 184.52 145.92"/>
        <line id="Niagara-on-the-Lake-34" data-name="Niagara-on-the-Lake" class="cls-1" x1="184.1" y1="146.11" x2="162.46" y2="155.23"/>
      </g>
      <g id="Niagara_Falls" data-name="Niagara Falls">
        <polygon id="Niagara_Falls-2" data-name="Niagara Falls" class="cls-1" points="282.87 305.81 283.06 310.61 284.67 310.11 293.71 310.48 295.23 305.66 289.85 306.05 282.87 305.81"/>
        <polygon id="Niagara_Falls-3" data-name="Niagara Falls" class="cls-1" points="330.06 299.8 330.11 304.42 329.57 310.27 327.46 313.68 325.65 316.49 322.32 320.52 319.91 325.78 319.03 330.11 319.7 334.72 320.06 337.8 320.42 343.32 321.4 346.39 322.7 351.92 322.42 355.63 322.48 360.86 324.39 365.45 325.48 367.29 322.88 367.32 320.71 367.37 320.92 384.32 245.22 385.24 245.26 391.05 251.72 390.98 251.46 394.04 208.64 394.56 208.6 391.74 207.85 391.75 206.52 345.93 207.62 345.92 206.62 303.12 207.42 303.11 207.3 284.05 201.45 283.69 201.32 272.72 200.86 259.77 200.46 226.79 199.71 215.16 198.97 192.42 214.73 184.48 215.14 187.72 227.39 186.8 235.99 186.07 251.99 185.56 271.4 184.71 291.7 184.17 307.41 183.65 307.75 187.67 306.9 192.59 304.38 194.74 301.12 197.92 299.32 202.23 297.5 205.04 295.05 206.6 293.47 206.22 291.99 208.49 289.39 210.26 288.05 212.53 287.13 212.54 286.43 211.77 285.46 211.3 283.38 212.48 283.13 213.83 285.51 215.57 286.24 216.58 287.48 216.56 288.74 217.14 288.76 218.02 289.98 219.29 291.82 218.95 294.01 222.01 295.79 227.22 294.26 232.06 292.35 237.74 291.44 237.76 290.83 238.67 290.85 240.23 289.97 241.15 289.64 242.47 289.66 243.92 289.05 244.86 288.63 245.49 288.46 246.4 287.23 247.35 285.41 249.84 284.51 250.44 284.52 251.38 283.58 251.39 283.31 253.25 281.79 254.18 280.88 256.66 280.9 257.89 280.29 258.52 280.3 259.43 280.63 260.04 279.7 260.99 279.43 262.52 279.44 264.08 280.06 264.07 281 266.2 282.86 267.41 284.73 268.92 285.66 270.47 287.51 270.44 288.75 271.04 292.45 270.38 295.84 271.25 298.02 272.46 301.27 274.57 303.3 276.1 306.69 276.97 307.03 278.2 307.33 279.13 309.35 279.99 316.9 280.87 320.62 282.06 322.19 285.42 323.77 287.87 325.95 290.92 328.47 295.18 330.06 299.8"/>
        <polyline id="Niagara_Falls-4" data-name="Niagara Falls" class="cls-1" points="322.78 367.29 320.26 363.62 319.94 361.16 319.57 357.49 320.14 353.16 320.1 350.4 318.18 344.58 317.56 341.5 317.53 339.03 316.87 335.66 316.19 330.44 316.44 326.74 317.9 321.49 319.72 319.03 321.26 317.45 323.36 313.43 326.06 308.46 327.86 304.77 327.2 300.78 326.21 294.62 325.85 290.95"/>
        <polyline id="Niagara_Falls-5" data-name="Niagara Falls" class="cls-1" points="227.21 302.28 227.35 313.98 244.27 313.77 244.68 321.46 245.16 385.24"/>
        <polyline id="Niagara_Falls-6" data-name="Niagara Falls" class="cls-1" points="316.82 280.9 308.96 293.6 306.49 293.63 306.92 302.55 306.94 304.08 307.84 303.45 309.69 303.43 310.3 302.81 311.23 302.21 312.15 302.78 313.06 302.77 314.3 302.76 315.52 302.15 315.21 300.92 315.5 299.98 317.04 299.35 318.56 298.42 320.09 298.4 321.03 298.68 321.95 298.99 323.47 298.65 324.09 298.64 324.69 297.72 324.39 296.49 325.61 296.18"/>
        <polyline id="Niagara_Falls-7" data-name="Niagara Falls" class="cls-1" points="306.92 302.55 300.16 302.63 298.32 303.27 296.14 302.98 296.04 294.21 297.59 293.73 306.49 293.63"/>
        <polyline id="Niagara_Falls-8" data-name="Niagara Falls" class="cls-1" points="296.14 302.98 288.77 303.07 285.39 303.43 284.73 299.44"/>
        <polygon id="Niagara_Falls-9" data-name="Niagara Falls" class="cls-1" points="284.73 299.44 283.18 300.08 282.28 301.32 281.38 302.25 280.45 302.87 279.23 303.8 278 304.43 277.42 305.06 277.4 303.53 276.18 304.16 276.12 299.28 276.69 295.54 279.73 294.57 283.45 296.08 285.59 295.11 288.65 293.55 291.11 292.58 292.74 292.13 290.35 294.52 289 298.16 284.73 299.44"/>
        <polyline id="Niagara_Falls-10" data-name="Niagara Falls" class="cls-1" points="277.42 305.06 274.35 306.03 271.61 307.92 269.76 308.23 269.15 308.56 265.48 311.66 264.25 312 263.35 312.31 261.17 312.33 260.27 312.67 258.43 313.92 253.82 314.27 253.22 315.19 248.6 314.66 247.67 313.73 247.67 313.11 244.27 313.77 244.08 297.82 245.3 297.45 249.01 298.02 252.1 298.28 256.1 298.56 257.95 298.53 261.31 296.96 262.74 295.39 265.59 294.12 266.51 294.73 267.74 294.42 270.84 295.29 273.61 295.88 276.69 295.54"/>
        <polyline id="Niagara_Falls-11" data-name="Niagara Falls" class="cls-1" points="207.42 303.14 208.47 303.45 211.83 301.24 216.11 300.89 218.59 301.77 223.84 303.26 227.21 302.28 229.66 301.02 232.07 296.7 235.14 295.11 236.67 295.41 240.06 296.28 244.08 297.82 245.3 297.45 244.96 293.14 244.62 291.94 244.55 285.77 243.91 283.93 244.14 276.23 245.3 270.69 243.75 270.71 241.31 271.03 236.08 271.09 233.3 271.45 233.71 279.14 218.65 279.94 218.64 279.32 219.54 278.08 219.84 276.22 218.89 275.32 218.56 272.86 219.17 272.24 214.24 272.3 212.1 272.62 210.54 272.34 201.32 272.75"/>
        <polyline id="Niagara_Falls-12" data-name="Niagara Falls" class="cls-1" points="301.73 281.99 305.17 284.74 306.4 286.23 306.15 291.97 306.49 293.63"/>
        <line id="Niagara_Falls-13" data-name="Niagara Falls" class="cls-1" x1="296.04" y1="294.21" x2="295.74" y2="290.07"/>
        <polyline id="Niagara_Falls-14" data-name="Niagara Falls" class="cls-1" points="306.92 278.25 303.55 279.53 301.73 281.99 296.89 286.98 295.68 289.14 292.74 292.13 292.3 289.51 289.68 285.3 291.62 283.67 293.47 283.94 301.19 274.6"/>
        <line id="Niagara_Falls-15" data-name="Niagara Falls" class="cls-1" x1="306.61" y1="277.02" x2="306.92" y2="278.25"/>
        <polyline id="Niagara_Falls-16" data-name="Niagara Falls" class="cls-1" points="296.85 279.85 284.1 274.53 281.21 272.4 279.15 270.89 277.55 267.21 277.21 263.22 276.58 261.99 277.17 260.46 277.44 258.28 278.99 257.65 278.95 254.27 279.56 253.64 280.76 250.57 281.97 249 283.48 247.13 283.78 247.74 285 247.11 285.63 247.43 286.23 246.8 287.18 247.41 285.36 249.9 284.43 250.53 284.44 251.44 283.53 251.45 283.23 253.3 281.71 254.23 280.83 256.71 280.84 257.95 280.24 258.57 280.25 259.48 280.55 260.09 279.65 261.04 279.35 262.58 279.36 264.1 279.98 264.1 280.95 266.26 282.78 267.47 284.65 268.98 285.61 270.49 287.46 270.47 288.67 271.07 292.37 270.41 295.76 271.31"/>
        <polyline id="Niagara_Falls-17" data-name="Niagara Falls" class="cls-1" points="275.6 272.17 277.62 272.76 279.17 272.42 281.21 272.4"/>
        <polygon id="Niagara_Falls-18" data-name="Niagara Falls" class="cls-1" points="264.68 269.83 273.56 269.51 273.6 270.64 275.6 272.17 274.57 273.42 272.19 274.36 265.03 274.15 264.68 269.83"/>
        <polyline id="Niagara_Falls-19" data-name="Niagara Falls" class="cls-1" points="264.68 269.83 254.52 270.25 254.92 278.56 259.38 275.1 261.44 274.49 265.03 274.15"/>
        <polyline id="Niagara_Falls-20" data-name="Niagara Falls" class="cls-1" points="254.92 278.43 254.92 278.56 249.69 278.52 249.59 270.63"/>
        <polyline id="Niagara_Falls-21" data-name="Niagara Falls" class="cls-1" points="201.32 272.75 200.86 259.83 203.91 258.88 206.34 255.76 209.39 253.26 211.38 253.24 218.63 253.76 221.46 253.11 222.01 254.05 222.06 258.66 222.72 262.03 223.3 272 219.17 272.24"/>
        <polygon id="Niagara_Falls-22" data-name="Niagara Falls" class="cls-1" points="233.04 250.21 243.15 250.09 243.75 270.71 241.31 271.03 236.08 271.09 233.3 271.45 233.04 250.21"/>
        <polygon id="Niagara_Falls-23" data-name="Niagara Falls" class="cls-1" points="246.9 249.75 247.57 260.82 245.3 270.69 249.59 270.63 249.69 249.71 246.9 249.75"/>
        <line id="Niagara_Falls-24" data-name="Niagara Falls" class="cls-1" x1="253.63" y1="249.67" x2="249.69" y2="249.71"/>
        <line id="Niagara_Falls-25" data-name="Niagara Falls" class="cls-1" x1="254.52" y1="270.25" x2="254.13" y2="262.27"/>
        <line id="Niagara_Falls-26" data-name="Niagara Falls" class="cls-1" x1="249.59" y1="270.63" x2="254.52" y2="270.25"/>
        <polyline id="Niagara_Falls-27" data-name="Niagara Falls" class="cls-1" points="264.68 269.83 273.56 269.51 273.07 260.51 264.58 261.25 264.68 269.83"/>
        <polygon id="Niagara_Falls-28" data-name="Niagara Falls" class="cls-1" points="281.47 249.62 280.76 250.57 279.56 253.64 278.95 254.27 278.99 257.65 277.44 258.28 277.17 260.46 273.07 260.51 272.94 249.43 278.06 249.37 281.47 249.62"/>
        <polygon id="Niagara_Falls-29" data-name="Niagara Falls" class="cls-1" points="272.94 249.43 263.82 249.22 264.58 261.25 273.07 260.51 272.94 249.43"/>
        <polyline id="Niagara_Falls-30" data-name="Niagara Falls" class="cls-1" points="263.82 249.33 263.82 249.22 253.63 249.67 254.13 262.27 264.58 261.25"/>
        <polygon id="Niagara_Falls-31" data-name="Niagara Falls" class="cls-1" points="232.35 244.37 246.44 238.06 246.9 249.75 243.15 250.09 233.04 250.21 232.35 244.37"/>
        <polyline id="Niagara_Falls-32" data-name="Niagara Falls" class="cls-1" points="249.55 249.72 249.69 249.71 249.63 244.99 252.95 242.27"/>
        <line id="Niagara_Falls-33" data-name="Niagara Falls" class="cls-1" x1="263.82" y1="249.22" x2="263.4" y2="241.85"/>
        <line id="Niagara_Falls-34" data-name="Niagara Falls" class="cls-1" x1="272.94" y1="249.43" x2="272.47" y2="241.74"/>
        <polyline id="Niagara_Falls-35" data-name="Niagara Falls" class="cls-1" points="232.35 244.37 242.65 239.77 241.62 221.49 231.17 222.23 231.37 226.01"/>
        <line id="Niagara_Falls-36" data-name="Niagara Falls" class="cls-1" x1="246.37" y1="232.83" x2="246.37" y2="233.04"/>
        <polyline id="Niagara_Falls-37" data-name="Niagara Falls" class="cls-1" points="246.37 233.04 246.44 238.06 249.72 240.94 252.95 242.27 252.84 233.05"/>
        <polygon id="Niagara_Falls-38" data-name="Niagara Falls" class="cls-1" points="252.84 233.05 246.37 232.83 245.32 221.15 252.07 220.75 252.84 233.05"/>
        <polygon id="Niagara_Falls-39" data-name="Niagara Falls" class="cls-1" points="252.95 242.27 256.33 242.55 263.4 241.85 263.02 234.48 252.95 242.27"/>
        <polyline id="Niagara_Falls-40" data-name="Niagara Falls" class="cls-1" points="263.02 234.48 262.96 229.6 252.86 234.6"/>
        <polyline id="Niagara_Falls-41" data-name="Niagara Falls" class="cls-1" points="262.96 229.6 262.85 220.27 252.07 220.75"/>
        <polygon id="Niagara_Falls-42" data-name="Niagara Falls" class="cls-1" points="263.02 234.48 263.4 241.85 265.25 241.51 272.47 241.74 273.89 241.72 273.4 227.57 273.32 221.11 272.2 219.88 265.76 232.6 263.02 234.48"/>
        <line id="Niagara_Falls-43" data-name="Niagara Falls" class="cls-1" x1="272.2" y1="219.88" x2="263.04" y2="220.26"/>
        <line id="Niagara_Falls-44" data-name="Niagara Falls" class="cls-1" x1="273.89" y1="241.72" x2="284.26" y2="241.28"/>
        <polygon id="Niagara_Falls-45" data-name="Niagara Falls" class="cls-1" points="283.54 232.25 284.26 241.28 286.53 244.95 287.43 243.7 288.05 243.7 288.03 242.46 289.56 242.55 289.89 241.21 290.77 240.28 290.75 238.76 291.36 237.81 292.29 237.8 294.18 232.12 285.14 231.74 283.54 232.25"/>
        <line id="Niagara_Falls-46" data-name="Niagara Falls" class="cls-1" x1="283.35" y1="227.45" x2="273.4" y2="227.57"/>
        <line id="Niagara_Falls-47" data-name="Niagara Falls" class="cls-1" x1="283.54" y1="232.25" x2="283.35" y2="227.45"/>
        <line id="Niagara_Falls-48" data-name="Niagara Falls" class="cls-1" x1="273.56" y1="232.37" x2="283.54" y2="232.25"/>
        <polyline id="Niagara_Falls-49" data-name="Niagara Falls" class="cls-1" points="285.43 215.65 286.19 216.66 287.42 216.64 288.69 217.22 288.7 218.1 289.9 219.38 291.74 219.03 293.93 222.09 295.71 227.3 290.32 227.68 283.35 227.45 283.74 217.89 283.2 215.68 285.43 215.65"/>
        <polyline id="Niagara_Falls-50" data-name="Niagara Falls" class="cls-1" points="241.62 221.49 245.32 221.15 245.25 215.3 243.79 209.77 241.14 206.42 230.75 211.78 231.17 222.23"/>
        <line id="Niagara_Falls-51" data-name="Niagara Falls" class="cls-1" x1="229.95" y1="198.99" x2="230.75" y2="211.78"/>
        <line id="Niagara_Falls-52" data-name="Niagara Falls" class="cls-1" x1="252.07" y1="220.61" x2="252.01" y2="215.22"/>
        <polygon id="Niagara_Falls-53" data-name="Niagara Falls" class="cls-1" points="235.82 198.92 241.14 206.42 243.79 209.77 245.25 215.3 252.01 215.22 251.92 208.33 251.02 206.97 251.25 203.83 251.15 195.84 245.95 197.65 240.62 198.87 235.82 198.92"/>
        <polyline id="Niagara_Falls-54" data-name="Niagara Falls" class="cls-1" points="252.01 215.22 261.99 214.03 261.42 204.03"/>
        <line id="Niagara_Falls-55" data-name="Niagara Falls" class="cls-1" x1="261.99" y1="214.03" x2="262.85" y2="220.27"/>
        <polygon id="Niagara_Falls-56" data-name="Niagara Falls" class="cls-1" points="251.15 195.84 251.25 203.83 261.42 204.03 261.82 199.28 260.71 196.96 254.84 194.88 251.15 195.84"/>
        <line id="Niagara_Falls-57" data-name="Niagara Falls" class="cls-1" x1="261.42" y1="204.03" x2="272.3" y2="203.9"/>
        <polyline id="Niagara_Falls-58" data-name="Niagara Falls" class="cls-1" points="271.9 195.21 269.33 197.47 265.02 198.14 260.71 196.96"/>
        <polyline id="Niagara_Falls-59" data-name="Niagara Falls" class="cls-1" points="260.71 196.82 260.32 191.12 265.91 194.13 269.33 197.47"/>
        <polyline id="Niagara_Falls-60" data-name="Niagara Falls" class="cls-1" points="251.15 195.68 250.81 189.46 256.39 190.04 260.32 191.12"/>
        <polyline id="Niagara_Falls-61" data-name="Niagara Falls" class="cls-1" points="271.32 184.82 271.9 195.21 272.3 203.9 273.09 217.89 276.85 209.37 277.8 209.97 279.65 209.95 279.65 210.57 283.3 212.56"/>
        <polyline id="Niagara_Falls-62" data-name="Niagara Falls" class="cls-1" points="200.86 259.83 203.91 258.88 206.34 255.76 209.39 253.26 211.38 253.24 213.63 253.42 213.02 247.37 214.25 246.44 222.24 246.96 222.27 249.43 232.35 244.37 231.38 226.01 200.46 226.87"/>
        <polygon id="Niagara_Falls-63" data-name="Niagara Falls" class="cls-1" points="199.71 215.24 203.92 213.07 205.46 207.47 208.72 204.35 213.69 200.91 222.55 199.08 229.95 198.99 235.82 198.92 227.36 186.9 215.14 187.83 214.7 184.59 198.98 192.53 199.71 215.24"/>
      </g>
      <g id="St._Catharines" data-name="St. Catharines">
        <polyline id="St._Catharines-2" data-name="St. Catharines" class="cls-1" points="64.36 105.42 58.54 105.52 58.62 105.03 58.57 101.04 58.57 101.04 57.28 94.75 58.49 94.49 58.8 96.04 63.34 96.53"/>
        <polyline id="St._Catharines-3" data-name="St. Catharines" class="cls-1" points="14.43 145.1 12.91 145.65 4.4 144.98 4.78 151.79 5.72 154.65 8.85 160.11 8.61 166.92 9.85 169.51 12.31 171.57 14.77 172.56 16.89 223.63"/>
        <polyline id="St._Catharines-4" data-name="St. Catharines" class="cls-1" points="98.29 126.54 99.2 126.29 98.57 125.25 99.47 124.7 96.51 79.71 96.51 79.17 96.8 78.66 96.49 77.89 95.27 78.95 88.92 79.8 84.63 77.23 84.02 75.95 84.3 74.36 87.02 73.01 85.77 71.47 84.52 68.59 84.21 67.04 86.32 66.21 85.02 58.37 90.45 55.43 88.01 55.46 87.41 56.25 85 56.54 84.39 57.09 83.47 56.83 81.63 55.27 81.34 56.08 82.58 58.4 82.75 72.55 82.49 75.7 81.88 76.48 81.3 76.76 81.3 77.27 82.22 77.25 82.23 78.3 81.32 78.31 81.34 80.43 82.88 83.28 83.51 84.83 84.78 89.27 85.72 92.15 84.52 92.43 81.68 84.34 79.81 79.91 78.86 76.79 78.26 76.53 78.49 71.02 78.14 66.58 77.77 62.4 78.05 58.72 78.61 56.62 79.21 55.06 77.11 56.37 76.53 59.27 76.91 66.32 76.65 69.73 76.12 76.28 76.76 78.13 75.56 79.19 75.87 80.5 73.17 83.13 67.46 88.19 62.93 90.07 61.44 91.4 59.62 91.93 49.68 99.4 48.78 100.19 47.57 100.2 42.76 103.4 37.02 105.83 33.38 106.14 33.04 102.74 28.48 102.26 28.16 100.71 26.93 100.96 28.24 107.25"/>
        <polyline id="St._Catharines-5" data-name="St. Catharines" class="cls-1" points="30.83 221.1 35.36 218.95 36.28 219.47 37.78 219.19 42.59 215.99 50.76 212.76 51.09 215.11 54.1 213.49 57.15 212.92 69.89 212.76 68.08 214.37 68.1 215.95 67.83 217.78 68.42 217.77 76.58 214.27 100.14 203.76 106.49 201.08 106.48 200.28 108.89 200.01 109.14 196.84 115.24 197.81 116.74 197.02 116.73 196.24 118.55 196.22 118.54 195.44 120.69 195.41 124.28 193.52 119.05 186.53 124.17 184.37 125.7 183.82 124.43 178.87 122.61 179.67 121.7 179.42 118.7 182.08 118.08 181.55 115.98 182.89 115.36 182.63 111.43 183.72 108.09 185.08 107.77 183.26 107.38 175.14 106.72 171.23 105.7 162.85 104.79 162.62 105.07 159.45 104.13 157.37 104.7 155.54 102.39 139.61 103 139.06 101.41 134.12 102.02 133.58 98.29 126.54"/>
        <polygon id="St._Catharines-6" data-name="St. Catharines" class="cls-1" points="53.54 147.82 42.55 145.72 28 142.39 25.29 142.15 19.3 143.99 21.72 146.38 24.23 154.48 26.42 160.21 42.92 152.42 53.54 147.82"/>
        <polygon id="St._Catharines-7" data-name="St. Catharines" class="cls-1" points="64.84 150.52 54.89 148.07 69.16 141.65 67.32 147.14 64.84 150.52"/>
        <polygon id="St._Catharines-8" data-name="St. Catharines" class="cls-1" points="83.3 169.21 82.96 165.3 83.87 165.28 83.83 162.15 83.2 160.84 88.01 158.93 88.92 158.87 88.9 157.1 94.65 158.07 104 157.69 104.94 159.77 100.14 162.19 97.15 165.39 92.95 168.31 89.34 169.4 83.3 169.21"/>
        <polygon id="St._Catharines-9" data-name="St. Catharines" class="cls-1" points="60.37 171.34 61.57 170.28 68.83 170.19 71.23 168.58 72.4 165.93 78.45 167.44 83.3 169.21 84 169.23 84.75 189.12 84.5 192.77 76.04 191.58 73.25 187.14 70.74 179.58 70.16 177.76 68.91 176.19 65.42 174.41 62.81 173.4 60.37 171.34"/>
        <polyline id="St._Catharines-10" data-name="St. Catharines" class="cls-1" points="50.93 213.1 52.12 211.77 51.67 201.48 64.37 202.72 69.25 205.02 77.05 201.76 77.07 203.61 74.72 209.14 69.94 213.11"/>
        <polyline id="St._Catharines-11" data-name="St. Catharines" class="cls-1" points="34.53 207.53 33.07 180.3 31.77 179 28.44 179.04 27.36 177.99 27.29 172.46 15.09 172.88"/>
        <polyline id="St._Catharines-12" data-name="St. Catharines" class="cls-1" points="28.54 111.54 27.4 117.51 28.91 118.27 32.59 120.85 25.25 139.28 24.97 140.57 25.29 142.15 23.47 142.71 14.76 145.42 12.28 139.68 11.05 137.87 9.2 136.07 6.17 134.26 4.03 131.92 2.78 128.29 1.25 128.82 .27 120.46 6.26 117.23 8.06 116.96 11.08 116.12 12.57 115.59 28.49 107.54"/>
        <polyline id="St._Catharines-13" data-name="St. Catharines" class="cls-1" points="33.62 106.43 34.52 107.71 33.65 108.5 34.28 111.92 28.46 112.02"/>
        <polyline id="St._Catharines-14" data-name="St. Catharines" class="cls-1" points="32.59 120.85 32.86 118.99 44.28 113.89 46.97 112.55 52.38 109.08 52.39 110.39 63.97 105.4 63.01 90.36"/>
        <polygon id="St._Catharines-15" data-name="St. Catharines" class="cls-1" points="92.88 118.46 92.03 116.72 87.05 104.47 84.55 97.15 83.6 93.76 80.28 94.85 80.03 98.52 78.25 101.68 78.59 103.26 75.37 112.2 70.33 121.17 71.03 127.97 92.88 118.46"/>
        <polyline id="St._Catharines-16" data-name="St. Catharines" class="cls-1" points="80.03 98.52 52.39 110.39 53.9 135.26 71.03 127.97"/>
        <polyline id="St._Catharines-17" data-name="St. Catharines" class="cls-1" points="53.9 135.26 42.48 140.36 42.55 145.72"/>
        <polyline id="St._Catharines-18" data-name="St. Catharines" class="cls-1" points="98.19 126.87 96.95 126.88 92.88 118.46"/>
        <polyline id="St._Catharines-19" data-name="St. Catharines" class="cls-1" points="76.37 125.66 77.21 150.96 102.29 139.9 102.87 139.39 102.79 139.13"/>
        <line id="St._Catharines-20" data-name="St. Catharines" class="cls-1" x1="68.94" y1="141.73" x2="76.79" y2="138.2"/>
        <polyline id="St._Catharines-21" data-name="St. Catharines" class="cls-1" points="38.96 173.15 38.02 170.8 35.6 169.79"/>
        <polyline id="St._Catharines-22" data-name="St. Catharines" class="cls-1" points="26.42 160.21 29.19 165.68 35.6 169.79 37.08 168.21 43.7 165.5 42.92 152.42"/>
        <polyline id="St._Catharines-23" data-name="St. Catharines" class="cls-1" points="64.81 150.52 54.89 148.07 53.54 147.82"/>
        <polyline id="St._Catharines-24" data-name="St. Catharines" class="cls-1" points="43.67 165.29 43.7 165.5 73.12 152.57 64.81 150.52"/>
        <polyline id="St._Catharines-25" data-name="St. Catharines" class="cls-1" points="77.21 150.96 77.24 153.59 73.12 152.57"/>
        <line id="St._Catharines-26" data-name="St. Catharines" class="cls-1" x1="88.9" y1="157.1" x2="77.24" y2="153.59"/>
        <line id="St._Catharines-27" data-name="St. Catharines" class="cls-1" x1="55.01" y1="160.54" x2="55.84" y2="171.12"/>
        <polyline id="St._Catharines-28" data-name="St. Catharines" class="cls-1" points="106.58 171.55 101.76 171.61 101.49 173.98 96 170.37 95.13 170.91 92.95 168.31"/>
        <polyline id="St._Catharines-29" data-name="St. Catharines" class="cls-1" points="84.75 189.12 92.61 188.75 93.22 191.11 97.45 190.52 98.39 192.09 106.5 188.59 108.3 186.98 109.19 186.97 108.92 185.04 107.96 185.43"/>
        <polyline id="St._Catharines-30" data-name="St. Catharines" class="cls-1" points="76.04 191.58 76.96 194.95 77.05 201.76"/>
        <polyline id="St._Catharines-31" data-name="St. Catharines" class="cls-1" points="60.37 171.34 59.15 170.55 55.84 171.12 53.44 172.47 51.68 175.89 48.38 178.03"/>
        <polyline id="St._Catharines-32" data-name="St. Catharines" class="cls-1" points="34.53 207.53 39.02 204.58 39.34 203.8 43.86 203.48 44.14 202.16 46.54 201.09 47.44 200.03 47.98 195.57 50.08 194.23 50.97 192.4 49.41 189.55 51.16 183.49 50.85 180.09 49.89 178.52 48.38 178.03 46.26 177.51 41.7 175.75 38.96 173.15 36.83 172.13 27.29 172.46"/>
        <polyline id="St._Catharines-33" data-name="St. Catharines" class="cls-1" points="34.53 207.53 27.36 213.9 25.65 221.27 21.16 224.19 17.52 225.28 17.21 223.97 5.39 224.11 6.13 232.5 5.59 236.42 6.18 236.68 6.81 237.21 9.82 236.13 11.63 236.88 11.62 236.11 17.65 235.77 18.87 236.8 24.93 236.46 31.24 234.82 32.77 235.31 33.05 234 43.87 230.22 43.85 228.88 42.94 228.92 41.71 227.08 34.13 223.77 32.93 223.78 31.07 221.44 32.56 218.02 32.43 215.69 34.03 214.86 35.53 215.11 37.02 214.32 36.99 211.42 40 209.56 41.5 207.45 43.57 205.74 43.86 203.48"/>
        <polyline id="St._Catharines-34" data-name="St. Catharines" class="cls-1" points="43.86 203.48 46.57 203.45 51.67 201.48"/>
      </g>
      <g id="Thorold">
        <line id="Thorold-2" data-name="Thorold" class="cls-1" x1="129.29" y1="279.35" x2="129.31" y2="281.37"/>
        <polyline id="Thorold-3" data-name="Thorold" class="cls-1" points="132.38 264.7 131.06 268.52 129.29 279.35"/>
        <polygon id="Thorold-4" data-name="Thorold" class="cls-1" points="52.07 303.84 56.51 308.77 60.9 310.54 64.46 309.7 68.55 309.24 70.04 310.43 71.05 335.87 88.88 335.66 88.82 330.8 93.97 330.98 94.03 335.27 114.33 335.35 116.72 335.69 120.8 333.66 132.83 332.9 134.99 331.48 134.93 326.76 135.98 322.86 138.42 320.41 141.16 320.78 143.92 322.36 151.59 325.05 154.06 325.43 159.51 323.16 163.29 318.82 165.76 318.79 169.05 320.12 169.84 319.44 170.47 302.81 169.37 302.2 163.09 301.88 162.81 257.41 160.79 225.76 161.29 222.35 162.08 218.93 148.73 223.71 85.02 247.33 85.57 248.53 87.5 248.51 86.69 249.7 89.2 253.29 88.1 253.7 86.43 250.72 84.52 250.34 83.69 250.54 83.7 251.34 81.51 251.77 80.44 251.79 79.07 251.8 77.13 250.83 75.24 252.06 76.35 253.23 76.07 254.84 74.73 254.67 74.71 253.25 72.78 252.68 63.52 257.19 62.44 256.4 62.67 252.81 50.37 253.55 50.88 273.6 50.12 277.39 51.55 282.39 52.07 303.84"/>
        <polyline id="Thorold-5" data-name="Thorold" class="cls-1" points="139.72 281.24 163.17 280.5 163.03 257.33 162.43 248.19 157.42 247.98 150.82 246.27 142.59 246.37 141.53 249.78 139.93 252.19"/>
        <polygon id="Thorold-6" data-name="Thorold" class="cls-1" points="101.95 243.45 109.88 240.54 110.46 241.74 112.11 242.93 117.35 246.05 120.4 247.44 123.68 247.8 123.75 254.08 119.13 255.45 118.3 256.07 109.52 254.97 105.12 255.21 102.39 254.87 102.59 249.85 104.47 245.84 101.95 243.45"/>
        <polyline id="Thorold-7" data-name="Thorold" class="cls-1" points="132.38 264.7 139.93 252.19 137.72 251.25 138.25 249.02 136.59 248.83 133.05 251.09 129.76 251.91 128.4 252.95 123.75 254.08 119.13 255.45 118.3 256.07 109.89 263.58 111.01 265.36 116.5 266.9 120.13 272.06 121.79 271.86 123.98 273.12 126.46 274.19 127.33 276.78 128.72 278.96"/>
        <polygon id="Thorold-8" data-name="Thorold" class="cls-1" points="129.31 281.37 132.88 281.51 133.69 282.12 134.52 281.49 139.72 281.24 140.39 290.22 139.56 290.84 135.75 292.28 132.54 292.91 130.81 291.97 131.06 290.36 127.49 290.8 129.31 281.37"/>
        <polyline id="Thorold-9" data-name="Thorold" class="cls-1" points="136.12 322.72 135.55 320.13 133.05 319.97 128.12 320.03 128.14 321.82 115.8 321.57 113.55 317.2 104.78 317.31 100.07 314.15 89.64 310.06 69.99 310.3"/>
      </g>
      <g id="Welland">
        <polygon id="Welland-2" data-name="Welland" class="cls-1" points="102.13 487.56 94.4 460.54 62.81 460.92 61.78 433.85 57.96 435.16 52.52 439.67 53.19 435.37 53.3 424.86 53.01 400.43 52.37 387.81 62.75 387.68 62.29 378.59 63.01 377.86 65.23 377.83 65.86 376.75 69.03 376.72 68.02 377.8 92.91 378.03 92.85 373.05 98.43 372.98 98.17 377.62 119.7 377.71 123.04 376.78 124.69 375.69 136.65 375.36 139.04 373.56 139.43 365.35 140.82 363.37 143.69 363.15 155.22 367.46 158.58 367.96 163.11 365.25 166.63 361.45 169.04 360.89 173.1 362.1 173.83 402.53 172.99 410.4 174.58 444.79 135.35 445.27 133.46 446.18 115.03 446.21 105.52 471.3 102.13 487.56"/>
        <polyline id="Welland-3" data-name="Welland" class="cls-1" points="114.98 446.18 121.45 431.52 118.6 430.48 86.7 431.59 88.75 444.2 91.89 444.08 91.91 445.98 62.45 446.79"/>
        <polyline id="Welland-4" data-name="Welland" class="cls-1" points="86.7 431.59 88.24 421.78 71.19 421.99 69.19 420.94 66.59 423.28 66.78 426.12 68.35 431.62 67.84 433.86 64.13 434.71 61.97 433.85"/>
        <polyline id="Welland-5" data-name="Welland" class="cls-1" points="125.25 421.33 121.45 431.52 121.24 431.44"/>
        <polyline id="Welland-6" data-name="Welland" class="cls-1" points="53.09 398.07 56.25 398.03 56.32 401.36 72.28 401.32"/>
        <polyline id="Welland-7" data-name="Welland" class="cls-1" points="78.22 418.55 75.61 419.63 71.08 420.03 69.19 420.94"/>
        <polyline id="Welland-8" data-name="Welland" class="cls-1" points="91.03 414.8 88.24 421.78 91.63 422.22 102.02 421.61 101.97 417.43 105.35 417.31 105.28 411.06 102.54 411.09 103.1 408.59 110.63 401.39 103.44 401.48 99.37 406.41 96.61 411.17 93.6 410.5"/>
        <polyline id="Welland-9" data-name="Welland" class="cls-1" points="90.02 411.25 89.59 413.93 91.03 414.8"/>
        <polyline id="Welland-10" data-name="Welland" class="cls-1" points="102.02 421.61 125.25 421.33 127.16 410.8 105.28 411.06"/>
        <polyline id="Welland-11" data-name="Welland" class="cls-1" points="92.15 410.17 93.6 410.48 99.34 403.97 100.86 400.98 99.3 400.19 72.28 401.32 73.02 403.11 72.21 415.91 75.57 416.76 78.22 418.55 80.79 415.65 84.32 412.58 86.77 411.29 90.02 411.25"/>
        <line id="Welland-12" data-name="Welland" class="cls-1" x1="82.27" y1="391.33" x2="82.38" y2="400.91"/>
        <polyline id="Welland-13" data-name="Welland" class="cls-1" points="100.86 400.98 103.12 389.93 105.47 385.02 114.15 379.74 112.73 377.77"/>
        <polyline id="Welland-14" data-name="Welland" class="cls-1" points="82.1 378 82.27 391.33 56.18 391.84 56.25 398.03"/>
      </g>
      <g id="Fort_Erie" data-name="Fort Erie">
        <polygon id="Fort_Erie-2" data-name="Fort Erie" class="cls-1" points="251.76 434.48 252.04 440.11 258.04 439.82 262.58 555 270.86 562.19 274.04 566.33 278.97 572.67 279.12 575.78 278.3 579.31 281.69 581.13 287.88 573.23 287.08 569.96 282.31 566.89 281.59 559.36 287.89 553.12 295.68 550.43 301.59 549.82 309.94 552.04 310.7 553.99 313.85 550.86 316.29 546.79 319.48 544.65 322.59 540.52 326.06 537.4 328.36 537.29 328.91 535.27 337.83 535.51 344.98 540.1 347.29 539.99 349.62 540.54 351.65 541.41 354.26 540.96 354.12 538.02 356.39 537.23 357.9 534.53 359.02 530.5 365.16 527.57 371.43 527.94 375.63 526.07 378.64 527.23 381.62 527.09 381.78 523.81 384.67 522 389.62 522.08 393.63 522.88 397.7 525.34 401.17 522.19 408.38 521.51 413.9 519.58 419.88 513.35 422.09 504.68 426.65 496.86 431.13 494.01 431.73 486.06 428.7 477.83 425.01 463.3 414 453.95 408.13 448.63 403.1 446.89 398.54 448.1 393.28 448.68 377.67 446.14 371.72 439.18 370.67 430.99 361.23 426.83 347.88 423.86 336.43 418.81 332.18 413.08 327.92 413.29 328.09 430.44 251.76 434.48"/>
        <polygon id="Fort_Erie-3" data-name="Fort Erie" class="cls-1" points="307.32 448.26 319.02 447.69 319.18 450.98 320.07 450.94 320.25 454.8 319.32 454.84 319.57 456.23 317.83 456.31 318.02 457.94 310.25 460.98 310.74 464.58 311.87 464.52 311.65 469.47 308.79 469.61 308.25 460.73 297.38 460.93 297.12 455.63 301.41 455.47 304.45 457.29 304.67 454.64 304.61 453.33 305.92 453.27 306.15 451.27 307.77 450.87 307.32 448.26"/>
        <polyline id="Fort_Erie-4" data-name="Fort Erie" class="cls-1" points="327.88 430.1 325.74 433.51 323.48 434.58 323.71 439.3 329.92 438.24 329.48 435.95 333.74 435.75 334.65 434.04 332.21 431.2 333.79 429.46 338.04 429.25 337.55 419.07 336.2 418.47 331.98 412.74"/>
        <polyline id="Fort_Erie-5" data-name="Fort Erie" class="cls-1" points="319.25 544.31 317.76 533.48 313.1 533.71 309.53 534.23 308.13 532.64 305.22 533.45 304.29 534.81 301.68 535.26 301.84 538.55 297.23 538.78 297.38 541.75 294.76 542.52 295.37 547.78 289.45 548.07 284.02 551.96 280.57 555.43 281.39 559.02"/>
        <polyline id="Fort_Erie-6" data-name="Fort Erie" class="cls-1" points="337.63 535.17 337.5 532.6 339.12 532.12 338.26 528.21 337.27 527.91 337.45 524.95 333.8 524.46 333.36 522.52 332.24 522.57 332.3 520.58 328.35 521.1 327.96 519.8 324.8 522.59 318.54 522.57 318.53 515.64 316.97 515.72 316.42 513.11 315.02 511.52 307.49 512.23 307.27 521.48 305.65 521.88 305.78 524.61 307.73 524.41 307.89 527.71 306.77 528.43 308.34 529.67 308.13 532.64"/>
        <polyline id="Fort_Erie-7" data-name="Fort Erie" class="cls-1" points="401.03 462.8 399.9 459.88 398.34 447.76"/>
        <line id="Fort_Erie-8" data-name="Fort Erie" class="cls-1" x1="428.47" y1="477.49" x2="403.55" y2="480.16"/>
        <polyline id="Fort_Erie-9" data-name="Fort Erie" class="cls-1" points="403.55 480.16 402.15 465.38 401.03 462.8 391.05 463.96 389.68 466.66 380.8 466.77 380.7 464.82 372.01 462.9 371.44 464.25 369.44 464.02 369.67 468.68 380.75 479.63 383.16 481.15 383.97 484.42 390.06 487.74 404.32 489.36 403.55 480.16"/>
        <polyline id="Fort_Erie-10" data-name="Fort Erie" class="cls-1" points="383.97 484.42 384.3 491.25 377.09 492.67 377.37 498.35 405.32 496.24 402.78 489.19"/>
        <polyline id="Fort_Erie-11" data-name="Fort Erie" class="cls-1" points="404.26 489.31 414.75 490.22 415.41 493.76 415.5 495.74 405.32 496.24"/>
        <polyline id="Fort_Erie-12" data-name="Fort Erie" class="cls-1" points="430.92 493.67 418.64 492.28 414.75 490.22"/>
        <polyline id="Fort_Erie-13" data-name="Fort Erie" class="cls-1" points="415.5 495.74 415.14 498.28 417.84 502.87 420.35 500.44 422.87 502.63"/>
        <polyline id="Fort_Erie-14" data-name="Fort Erie" class="cls-1" points="389.41 521.74 389.9 518.44 400.08 517.6 401.12 518.54 409.38 512.69 417.84 502.87"/>
        <line id="Fort_Erie-15" data-name="Fort Erie" class="cls-1" x1="409.38" y1="512.69" x2="409.32" y2="496.04"/>
        <polyline id="Fort_Erie-16" data-name="Fort Erie" class="cls-1" points="381.58 523.47 381.69 519.16 380.28 517.25 380.09 506.7 376.32 503.91 375.39 498.45 377.37 498.35"/>
        <polyline id="Fort_Erie-17" data-name="Fort Erie" class="cls-1" points="392.22 497.22 392.29 499.85 389.39 501.95 388.87 503.97 391.09 506.68 391.66 518.28 389.9 518.44 389.41 521.74"/>
      </g>
    </g>
  </g>
</svg>
